<?xml version="1.0" standalone="no"?>
<!DOCTYPE svg PUBLIC "-//W3C//DTD SVG 1.1//EN" "http://www.w3.org/Graphics/SVG/1.1/DTD/svg11.dtd" >
<svg xmlns="http://www.w3.org/2000/svg">
<metadata>
<json>
<![CDATA[
{
	"fontFamily": "licons",
	"majorVersion": 2,
	"minorVersion": 0,
	"fontURL": "https://kleverspace.github.io/licons/",
	"description": "line style icons [for web]\nFont generated by IcoMoon.",
	"designer": "Jan Klever",
	"designerURL": "http://janklever.com.br",
	"license": "SIL OFL 1.1",
	"licenseURL": "http://scripts.sil.org/OFL",
	"version": "Version 2.0",
	"fontId": "licons",
	"psName": "licons",
	"subFamily": "Regular",
	"fullName": "licons"
}
]]>
</json>
</metadata>
<defs>
<font id="licons" horiz-adv-x="1024">
<font-face units-per-em="1024" ascent="960" descent="-64" />
<missing-glyph horiz-adv-x="1024" />
<glyph unicode="&#x20;" horiz-adv-x="512" d="" />
<glyph unicode="&#xe900;" glyph-name="accessibility-alt" data-tags="accessibility-alt" horiz-adv-x="493" d="M416 757.76c-42.24 0-76.8-34.56-76.8-76.8s34.56-76.8 76.8-76.8c42.24 0 76.8 34.56 76.8 76.8s-34.56 76.8-76.8 76.8zM416 656.64c-12.8 0-23.040 10.24-23.040 23.040s10.24 23.040 23.040 23.040c12.8 0 23.040-10.24 23.040-23.040 0-11.52-10.24-23.040-23.040-23.040zM423.68 446.72h-153.6l88.32 111.36c5.12 6.4 6.4 14.080 5.12 21.76s-6.4 14.080-12.8 17.92l-136.96 79.36c-10.24 5.12-21.76 5.12-30.72-2.56l-83.2-70.4c-11.52-8.96-12.8-26.88-2.56-37.12s26.88-12.8 37.12-2.56l69.12 58.88 94.72-55.040-87.040-108.8c-39.68 11.52-83.2 8.96-122.88-11.52-12.8-6.4-17.92-23.040-11.52-35.84s23.040-17.92 35.84-11.52c42.24 21.76 94.72 14.080 128-19.2 34.56-34.56 42.24-85.76 19.2-128-6.4-12.8-1.28-29.44 11.52-35.84 3.84-2.56 7.68-2.56 12.8-2.56 10.24 0 19.2 5.12 23.040 14.080 28.16 55.040 24.32 119.040-10.24 167.68h93.44l-33.28-152.32c-2.56-14.080 6.4-28.16 20.48-32 1.28 0 3.84 0 5.12 0 12.8 0 23.040 8.96 25.6 20.48l39.68 184.32c1.28 7.68 0 16.64-5.12 21.76-3.84 3.84-11.52 7.68-19.2 7.68zM213.76 204.8c-42.24-21.76-94.72-14.080-128 19.2-34.56 34.56-42.24 85.76-19.2 128 6.4 12.8 1.28 29.44-11.52 35.84s-29.44 1.28-35.84-11.52c-33.28-64-21.76-140.8 29.44-190.72 32-32 72.96-47.36 115.2-47.36 25.6 0 51.2 6.4 75.52 19.2 12.8 6.4 17.92 23.040 11.52 35.84-7.68 12.8-24.32 17.92-37.12 11.52z" />
<glyph unicode="&#xe901;" glyph-name="accessibility" data-tags="accessibility" horiz-adv-x="535" d="M340.48 281.6c-14.080 3.84-28.16-5.12-32-19.2-15.36-56.32-66.56-96-125.44-96-71.68 0-129.28 57.6-129.28 129.28 0 49.92 28.16 94.72 72.96 116.48 12.8 6.4 19.2 23.040 12.8 35.84s-23.040 19.2-35.84 12.8c-62.72-30.72-102.4-93.44-102.4-163.84 0-101.12 81.92-183.040 183.040-183.040 83.2 0 156.16 56.32 176.64 136.96 2.56 12.8-6.4 26.88-20.48 30.72zM532.48 254.72c-6.4 12.8-23.040 17.92-35.84 11.52l-32-16.64-74.24 128c-5.12 7.68-14.080 12.8-23.040 12.8h-124.16l-3.84 33.28h98.56c14.080 0 26.88 11.52 26.88 26.88s-11.52 26.88-26.88 26.88h-103.68l-10.24 99.84c-1.28 14.080-14.080 25.6-29.44 24.32-14.080-1.28-25.6-14.080-24.32-29.44l21.76-211.2c1.28-14.080 12.8-24.32 26.88-24.32h133.12l79.36-136.96c5.12-8.96 14.080-12.8 23.040-12.8 3.84 0 7.68 1.28 12.8 2.56l55.040 28.16c11.52 7.68 16.64 24.32 10.24 37.12zM186.88 628.48c42.24 0 76.8 34.56 76.8 76.8s-34.56 76.8-76.8 76.8c-42.24 0-76.8-34.56-76.8-76.8s34.56-76.8 76.8-76.8zM186.88 729.6c12.8 0 23.040-10.24 23.040-23.040s-10.24-23.040-23.040-23.040c-12.8 0-23.040 10.24-23.040 23.040s10.24 23.040 23.040 23.040z" />
<glyph unicode="&#xe902;" glyph-name="ampersand" data-tags="ampersand" horiz-adv-x="403" d="M343.040 249.6c37.12 35.84 60.16 87.040 60.16 142.080 0 15.36-11.52 26.88-26.88 26.88s-26.88-11.52-26.88-26.88c0-38.4-15.36-72.96-38.4-99.84l-235.52 312.32c0 0 0 1.28-1.28 1.28-7.68 8.96-10.24 20.48-8.96 30.72 1.28 11.52 7.68 20.48 16.64 28.16 17.92 14.080 44.8 10.24 58.88-7.68s10.24-44.8-7.68-58.88c-11.52-8.96-14.080-25.6-5.12-37.12s25.6-14.080 37.12-5.12c42.24 32 49.92 92.16 19.2 134.4-32 42.24-92.16 49.92-134.4 19.2-20.48-15.36-33.28-38.4-37.12-62.72s2.56-49.92 17.92-69.12c0 0 0-1.28 1.28-1.28l29.44-38.4c-39.68-40.96-61.44-90.88-61.44-145.92 0-110.080 89.6-200.96 200.96-200.96 35.84 0 69.12 8.96 98.56 25.6l28.16-37.12c5.12-6.4 12.8-10.24 21.76-10.24 5.12 0 11.52 1.28 16.64 5.12 11.52 8.96 14.080 25.6 5.12 37.12l-28.16 38.4zM202.24 244.48c-80.64 0-147.2 66.56-147.2 147.2 0 37.12 14.080 71.68 38.4 99.84l174.080-230.4c-21.76-10.24-43.52-16.64-65.28-16.64z" />
<glyph unicode="&#xe903;" glyph-name="anchor" data-tags="anchor" horiz-adv-x="620" d="M592.64 468.48h-37.12c-15.36 0-26.88-11.52-26.88-26.88s11.52-26.88 26.88-26.88h8.96c-12.8-119.040-107.52-215.040-227.84-227.84v327.68h131.84c15.36 0 26.88 11.52 26.88 26.88s-11.52 26.88-26.88 26.88h-130.56v38.4c30.72 11.52 53.76 40.96 53.76 75.52 0 44.8-35.84 80.64-80.64 80.64s-80.64-35.84-80.64-80.64c0-34.56 23.040-65.28 53.76-75.52v-38.4h-131.84c-15.36 0-26.88-11.52-26.88-26.88s11.52-26.88 26.88-26.88h131.84v-327.68c-119.040 12.8-215.040 107.52-227.84 227.84h8.96c15.36 0 26.88 11.52 26.88 26.88s-11.52 26.88-26.88 26.88h-37.12c-15.36 0-26.88-11.52-26.88-26.88 0-170.24 138.24-309.76 309.76-309.76s309.76 138.24 309.76 309.76c-1.28 15.36-14.080 26.88-28.16 26.88zM311.040 709.12c15.36 0 26.88-11.52 26.88-26.88s-11.52-26.88-26.88-26.88c-15.36 0-26.88 11.52-26.88 26.88s10.24 26.88 26.88 26.88z" />
<glyph unicode="&#xe904;" glyph-name="archive" data-tags="archive" horiz-adv-x="503" d="M432.64 775.68h-236.8c-11.52 0-17.92-6.4-19.2-7.68l-168.96-168.96c-1.28-1.28-7.68-7.68-7.68-17.92v-389.12c0-39.68 32-71.68 71.68-71.68h359.68c39.68 0 71.68 32 71.68 71.68v512c1.28 39.68-30.72 71.68-70.4 71.68zM168.96 684.8v-57.6c0-10.24-7.68-17.92-17.92-17.92h-58.88l76.8 75.52zM450.56 190.72c0-10.24-8.96-17.92-17.92-17.92h-360.96c-10.24 0-17.92 8.96-17.92 17.92v362.24h97.28c39.68 0 71.68 32 71.68 71.68v97.28h208.64c10.24 0 17.92-7.68 17.92-17.92l1.28-513.28zM376.32 448h-240.64c-15.36 0-26.88 11.52-26.88 26.88v0c0 15.36 11.52 26.88 26.88 26.88h240.64c15.36 0 26.88-11.52 26.88-26.88v0c0-15.36-11.52-26.88-26.88-26.88zM376.32 339.2h-240.64c-15.36 0-26.88 11.52-26.88 26.88v0c0 15.36 11.52 26.88 26.88 26.88h240.64c15.36 0 26.88-11.52 26.88-26.88v0c0-15.36-11.52-26.88-26.88-26.88zM376.32 230.4h-240.64c-15.36 0-26.88 11.52-26.88 26.88v0c0 15.36 11.52 26.88 26.88 26.88h240.64c15.36 0 26.88-11.52 26.88-26.88v0c0-15.36-11.52-26.88-26.88-26.88z" />
<glyph unicode="&#xe905;" glyph-name="asterisk" data-tags="asterisk" horiz-adv-x="571" d="M544 474.88h-194.56l160 160c10.24 10.24 10.24 26.88 0 38.4-10.24 10.24-26.88 10.24-38.4 0l-160-160v193.28c0 15.36-11.52 26.88-26.88 26.88s-26.88-11.52-26.88-26.88v-194.56l-160 161.28c-10.24 10.24-26.88 10.24-38.4 0-10.24-10.24-10.24-26.88 0-38.4l160-160h-192c-15.36 0-26.88-11.52-26.88-26.88s11.52-26.88 26.88-26.88h194.56l-160-160c-10.24-10.24-10.24-26.88 0-38.4 5.12-5.12 11.52-7.68 19.2-7.68 6.4 0 14.080 2.56 19.2 7.68l160 160v-194.56c0-15.36 11.52-26.88 26.88-26.88s26.88 11.52 26.88 26.88v194.56l160-160c5.12-5.12 11.52-7.68 19.2-7.68 6.4 0 14.080 2.56 19.2 7.68 10.24 10.24 10.24 26.88 0 38.4l-162.56 160h194.56c15.36 0 26.88 11.52 26.88 26.88s-12.8 26.88-26.88 26.88z" />
<glyph unicode="&#xe906;" glyph-name="at" data-tags="at" horiz-adv-x="499" d="M247.040 198.4c-53.76 0-106.24 15.36-149.76 43.52-69.12 46.080-102.4 121.6-96 209.92 7.68 94.72 49.92 168.96 121.6 211.2 70.4 40.96 158.72 46.080 232.96 12.8 108.8-49.92 160-179.2 139.52-270.080-11.52-51.2-46.080-81.92-90.88-80.64-40.96 1.28-64 20.48-75.52 35.84-3.84 5.12-6.4 8.96-8.96 14.080-55.040-67.84-112.64-70.4-149.76-47.36-58.88 35.84-64 121.6-34.56 183.040 23.040 48.64 64 85.76 107.52 94.72 33.28 7.68 66.56 0 94.72-24.32 11.52-8.96 12.8-26.88 3.84-38.4s-26.88-12.8-38.4-3.84c-15.36 12.8-30.72 16.64-48.64 12.8-26.88-6.4-56.32-32-71.68-65.28-24.32-51.2-11.52-99.84 14.080-115.2 21.76-14.080 53.76 1.28 83.2 39.68 12.8 16.64 20.48 32 24.32 44.8 1.28 24.32 5.12 43.52 6.4 47.36 2.56 12.8 15.36 20.48 28.16 20.48 12.8-1.28 23.040-10.24 24.32-23.040 0-1.28 2.56-21.76-6.4-51.2 0-20.48 2.56-42.24 12.8-56.32 5.12-6.4 12.8-14.080 34.56-15.36 19.2 0 32 12.8 37.12 39.68 14.080 58.88-17.92 167.68-108.8 208.64-57.6 25.6-129.28 21.76-183.040-10.24-38.4-21.76-87.040-69.12-94.72-167.68-5.12-69.12 20.48-125.44 72.96-161.28 61.44-40.96 147.2-46.080 215.040-12.8 12.8 6.4 29.44 1.28 35.84-12.8 6.4-12.8 1.28-29.44-12.8-35.84-37.12-17.92-78.080-26.88-119.040-26.88z" />
<glyph unicode="&#xe907;" glyph-name="balloons" data-tags="balloons" horiz-adv-x="635" d="M634.88 638.72c0 116.48-78.080 192-199.68 192-1.28 0-1.28 0-2.56 0-35.84 26.88-81.92 42.24-135.68 42.24-93.44 0-163.84-44.8-189.44-121.6-67.84-28.16-107.52-90.88-107.52-172.8 0-107.52 66.56-230.4 157.44-261.12-28.16-58.88-1.28-102.4 19.2-135.68 24.32-39.68 39.68-65.28 2.56-115.2-8.96-11.52-6.4-28.16 5.12-37.12 5.12-3.84 10.24-5.12 15.36-5.12 7.68 0 16.64 3.84 21.76 10.24 58.88 79.36 24.32 134.4 0 175.36-23.040 37.12-37.12 60.16-7.68 102.4 12.8 1.28 25.6 5.12 38.4 10.24 6.4-12.8 12.8-25.6 20.48-37.12 24.32-39.68 39.68-65.28 2.56-115.2-8.96-11.52-6.4-28.16 5.12-37.12 5.12-3.84 10.24-5.12 15.36-5.12 7.68 0 16.64 3.84 21.76 10.24 58.88 79.36 24.32 134.4 0 175.36-7.68 12.8-15.36 25.6-20.48 37.12 16.64 14.080 32 32 46.080 51.2 15.36-10.24 30.72-19.2 46.080-24.32-28.16-58.88-1.28-102.4 19.2-135.68 24.32-39.68 39.68-65.28 2.56-115.2-8.96-11.52-6.4-28.16 5.12-37.12 5.12-3.84 10.24-5.12 15.36-5.12 7.68 0 16.64 3.84 21.76 10.24 58.88 79.36 24.32 134.4 0 175.36-23.040 37.12-37.12 60.16-7.68 102.4 110.080 11.52 189.44 147.2 189.44 266.24zM296.96 819.2c17.92 0 33.28-2.56 48.64-5.12-29.44-11.52-55.040-30.72-72.96-53.76-21.76 6.4-46.080 10.24-71.68 10.24-7.68 0-16.64 0-24.32-1.28 33.28 43.52 92.16 49.92 120.32 49.92zM53.76 578.56c0 64 30.72 108.8 84.48 128 0 0 0 0 1.28 0 17.92 6.4 38.4 8.96 61.44 8.96 92.16 0 147.2-51.2 147.2-138.24 0-96-67.84-213.76-147.2-213.76s-147.2 117.76-147.2 215.040zM322.56 736c25.6 25.6 64 39.68 111.36 39.68 92.16 0 147.2-51.2 147.2-138.24 0-96-67.84-213.76-147.2-213.76-24.32 0-46.080 11.52-62.72 24.32 17.92 40.96 29.44 85.76 29.44 129.28 0 70.4-28.16 125.44-78.080 158.72z" />
<glyph unicode="&#xe908;" glyph-name="ban" data-tags="ban" horiz-adv-x="527" d="M263.68 657.92c48.64 0 92.16-16.64 128-43.52l-294.4-294.4c-26.88 35.84-43.52 79.36-43.52 128 0 116.48 94.72 209.92 209.92 209.92zM263.68 238.080c-48.64 0-92.16 16.64-128 43.52l294.4 294.4c26.88-35.84 43.52-79.36 43.52-128 0-116.48-93.44-209.92-209.92-209.92zM263.68 711.68c-145.92 0-263.68-117.76-263.68-263.68s117.76-263.68 263.68-263.68 263.68 117.76 263.68 263.68-117.76 263.68-263.68 263.68z" />
<glyph unicode="&#xe909;" glyph-name="battery-empty" data-tags="battery-empty" horiz-adv-x="603" d="M480 286.72h-409.6c-39.68 0-70.4 32-70.4 70.4v181.76c0 39.68 32 70.4 70.4 70.4h409.6c38.4 0 70.4-30.72 70.4-69.12 29.44-5.12 51.2-29.44 51.2-60.16v-61.44c0-30.72-21.76-55.040-51.2-60.16v-2.56c1.28-38.4-30.72-69.12-70.4-69.12zM70.4 556.8c-10.24 0-17.92-7.68-17.92-17.92v-181.76c0-10.24 7.68-17.92 17.92-17.92h409.6c10.24 0 17.92 7.68 17.92 17.92v28.16c0 14.080 11.52 26.88 26.88 26.88h16.64c3.84 0 7.68 3.84 7.68 7.68v61.44c0 3.84-3.84 7.68-7.68 7.68h-16.64c-14.080 0-26.88 11.52-26.88 26.88v24.32c0 10.24-7.68 17.92-17.92 17.92h-409.6z" />
<glyph unicode="&#xe90a;" glyph-name="battery-full" data-tags="battery-full" horiz-adv-x="603" d="M480 286.72h-409.6c-39.68 0-70.4 32-70.4 70.4v181.76c0 39.68 32 70.4 70.4 70.4h409.6c38.4 0 70.4-30.72 70.4-69.12 29.44-5.12 51.2-29.44 51.2-60.16v-61.44c0-30.72-21.76-55.040-51.2-60.16v-2.56c1.28-38.4-30.72-69.12-70.4-69.12zM70.4 556.8c-10.24 0-17.92-7.68-17.92-17.92v-181.76c0-10.24 7.68-17.92 17.92-17.92h409.6c10.24 0 17.92 7.68 17.92 17.92v28.16c0 14.080 11.52 26.88 26.88 26.88h16.64c3.84 0 7.68 3.84 7.68 7.68v61.44c0 3.84-3.84 7.68-7.68 7.68h-16.64c-14.080 0-26.88 11.52-26.88 26.88v24.32c0 10.24-7.68 17.92-17.92 17.92h-409.6zM128 378.88c-14.080 0-26.88 11.52-26.88 26.88v85.76c0 14.080 11.52 26.88 26.88 26.88s26.88-11.52 26.88-26.88v-85.76c-1.28-15.36-12.8-26.88-26.88-26.88zM226.56 378.88c-14.080 0-26.88 11.52-26.88 26.88v85.76c0 14.080 11.52 26.88 26.88 26.88s26.88-11.52 26.88-26.88v-85.76c-1.28-15.36-12.8-26.88-26.88-26.88zM325.12 378.88c-14.080 0-26.88 11.52-26.88 26.88v85.76c0 14.080 11.52 26.88 26.88 26.88s26.88-11.52 26.88-26.88v-85.76c0-15.36-12.8-26.88-26.88-26.88zM423.68 378.88c-14.080 0-26.88 11.52-26.88 26.88v85.76c0 14.080 11.52 26.88 26.88 26.88 14.080 0 26.88-11.52 26.88-26.88v-85.76c0-15.36-12.8-26.88-26.88-26.88z" />
<glyph unicode="&#xe90b;" glyph-name="battery-half" data-tags="battery-half" horiz-adv-x="603" d="M480 286.72h-409.6c-39.68 0-70.4 32-70.4 70.4v181.76c0 39.68 32 70.4 70.4 70.4h409.6c38.4 0 70.4-30.72 70.4-69.12 29.44-5.12 51.2-29.44 51.2-60.16v-61.44c0-30.72-21.76-55.040-51.2-60.16v-2.56c1.28-38.4-30.72-69.12-70.4-69.12zM70.4 556.8c-10.24 0-17.92-7.68-17.92-17.92v-181.76c0-10.24 7.68-17.92 17.92-17.92h409.6c10.24 0 17.92 7.68 17.92 17.92v28.16c0 14.080 11.52 26.88 26.88 26.88h16.64c3.84 0 7.68 3.84 7.68 7.68v61.44c0 3.84-3.84 7.68-7.68 7.68h-16.64c-14.080 0-26.88 11.52-26.88 26.88v24.32c0 10.24-7.68 17.92-17.92 17.92h-409.6zM128 378.88c-14.080 0-26.88 11.52-26.88 26.88v85.76c0 14.080 11.52 26.88 26.88 26.88s26.88-11.52 26.88-26.88v-85.76c-1.28-15.36-12.8-26.88-26.88-26.88zM226.56 378.88c-14.080 0-26.88 11.52-26.88 26.88v85.76c0 14.080 11.52 26.88 26.88 26.88s26.88-11.52 26.88-26.88v-85.76c-1.28-15.36-12.8-26.88-26.88-26.88z" />
<glyph unicode="&#xe90c;" glyph-name="bell" data-tags="bell" horiz-adv-x="616" d="M616.96 323.84c-1.28 11.52-10.24 21.76-23.040 23.040-57.6 8.96-75.52 66.56-98.56 162.56-23.040 98.56-51.2 220.16-186.88 220.16-134.4 0-163.84-121.6-186.88-220.16-23.040-96-39.68-153.6-98.56-162.56-11.52-1.28-20.48-10.24-21.76-23.040-1.28-11.52 5.12-23.040 16.64-28.16 3.84-1.28 80.64-32 188.16-44.8 8.96-48.64 52.48-84.48 102.4-84.48s93.44 35.84 102.4 84.48c107.52 14.080 184.32 44.8 188.16 46.080 12.8 3.84 19.2 15.36 17.92 26.88zM308.48 218.88c-19.2 0-34.56 10.24-43.52 25.6 14.080-1.28 28.16-1.28 43.52-1.28s29.44 0 43.52 1.28c-7.68-15.36-24.32-25.6-43.52-25.6zM308.48 296.96c-83.2 0-158.72 15.36-208.64 29.44 43.52 39.68 60.16 108.8 74.24 171.52 25.6 111.36 48.64 179.2 134.4 179.2s108.8-67.84 134.4-179.2c15.36-62.72 30.72-131.84 74.24-171.52-48.64-14.080-124.16-29.44-208.64-29.44z" />
<glyph unicode="&#xe90d;" glyph-name="birthday-cake" data-tags="birthday-cake" horiz-adv-x="627" d="M522.24 508.16c-49.92 14.080-113.92 23.040-183.040 24.32v30.72c0 15.36-11.52 26.88-26.88 26.88s-26.88-11.52-26.88-26.88v-30.72c-67.84-1.28-131.84-8.96-181.76-24.32-69.12-19.2-103.68-47.36-103.68-83.2v-247.040c0-35.84 34.56-64 103.68-84.48 56.32-16.64 130.56-25.6 209.92-25.6s153.6 8.96 209.92 25.6c67.84 19.2 103.68 48.64 103.68 84.48v247.040c-1.28 35.84-34.56 64-104.96 83.2zM285.44 480v-55.040c0-15.36 11.52-26.88 26.88-26.88s26.88 11.52 26.88 26.88v55.040c139.52-3.84 225.28-37.12 231.68-55.040-2.56-3.84-10.24-10.24-39.68-25.6-38.4-19.2-49.92-51.2-57.6-71.68-1.28-3.84-3.84-10.24-5.12-12.8-2.56 2.56-5.12 7.68-7.68 10.24-11.52 17.92-32 48.64-75.52 46.080-44.8-2.56-57.6-49.92-66.56-83.2-3.84-12.8-10.24-37.12-15.36-39.68-11.52 0-14.080 2.56-23.040 19.2-11.52 19.2-29.44 49.92-78.080 51.2-14.080 1.28-14.080 1.28-19.2 14.080-7.68 17.92-19.2 46.080-67.84 60.16-44.8 12.8-58.88 28.16-60.16 30.72 5.12 17.92 90.88 52.48 230.4 56.32zM312.32 121.6c-157.44 0-253.44 37.12-258.56 56.32v181.76c11.52-6.4 26.88-11.52 44.8-16.64 24.32-7.68 28.16-16.64 33.28-29.44 7.68-17.92 19.2-44.8 66.56-46.080 20.48-1.28 25.6-8.96 34.56-25.6 11.52-17.92 26.88-46.080 69.12-46.080 46.080 0 57.6 46.080 66.56 80.64 3.84 14.080 11.52 43.52 17.92 43.52 11.52 1.28 15.36-3.84 28.16-21.76 10.24-15.36 25.6-39.68 57.6-37.12 32 3.84 43.52 30.72 49.92 49.92 6.4 17.92 12.8 33.28 32 43.52 5.12 2.56 10.24 5.12 15.36 7.68v-183.040c-2.56-20.48-99.84-57.6-257.28-57.6zM312.32 628.48c40.96 0 72.96 33.28 72.96 72.96 0 23.040-19.2 126.72-72.96 126.72s-72.96-104.96-72.96-126.72c0-39.68 33.28-72.96 72.96-72.96zM312.32 769.28c8.96-15.36 19.2-49.92 19.2-67.84 0-10.24-8.96-19.2-19.2-19.2s-19.2 8.96-19.2 19.2c0 17.92 10.24 51.2 19.2 67.84z" />
<glyph unicode="&#xe90e;" glyph-name="black-tie" data-tags="black-tie" horiz-adv-x="460" d="M432.64 710.4h-84.48c3.84 7.68 3.84 16.64-1.28 24.32s-14.080 12.8-23.040 12.8h-188.16c-8.96 0-17.92-5.12-23.040-12.8-3.84-7.68-5.12-16.64-1.28-24.32h-84.48c-14.080 0-26.88-11.52-26.88-26.88v-510.72c0-14.080 11.52-26.88 26.88-26.88h405.76c14.080 0 26.88 11.52 26.88 26.88v512c0 14.080-12.8 25.6-26.88 25.6zM277.76 695.040l-37.12-65.28c-3.84-5.12-3.84-11.52-2.56-17.92l49.92-252.16-58.88-56.32-58.88 56.32 49.92 252.16c1.28 6.4 0 12.8-2.56 17.92l-37.12 65.28h97.28zM405.76 200.96h-353.28v456.96h88.32l26.88-46.080-51.2-256c-1.28-8.96 1.28-17.92 7.68-24.32l87.040-84.48c5.12-5.12 11.52-7.68 17.92-7.68s12.8 2.56 17.92 7.68l87.040 84.48c6.4 6.4 8.96 15.36 7.68 24.32l-51.2 256 26.88 46.080h88.32v-456.96z" />
<glyph unicode="&#xe90f;" glyph-name="bluetooth" data-tags="bluetooth" horiz-adv-x="319" d="M160 151.040c-3.84 0-6.4 0-10.24 2.56-10.24 3.84-16.64 14.080-16.64 24.32v204.8l-87.040-87.040c-10.24-10.24-26.88-10.24-38.4 0-10.24 10.24-10.24 26.88 0 38.4l113.92 113.92-113.92 113.92c-10.24 10.24-10.24 26.88 0 38.4 10.24 10.24 26.88 10.24 38.4 0l87.040-87.040v204.8c0 11.52 6.4 20.48 16.64 24.32s21.76 1.28 29.44-6.4l133.12-138.24c10.24-10.24 10.24-26.88 0-37.12l-115.2-112.64 113.92-113.92c10.24-10.24 10.24-26.88 0-37.12l-131.84-138.24c-5.12-5.12-12.8-7.68-19.2-7.68zM186.88 382.72v-139.52l67.84 70.4-67.84 69.12zM186.88 651.52v-139.52l67.84 67.84-67.84 71.68z" />
<glyph unicode="&#xe910;" glyph-name="bug" data-tags="bug" horiz-adv-x="598" d="M570.88 417.28h-107.52v47.36l97.28 56.32c12.8 7.68 16.64 23.040 10.24 35.84-7.68 12.8-23.040 16.64-35.84 10.24l-79.36-46.080c-11.52 25.6-32 44.8-58.88 53.76v30.72c0 53.76-43.52 98.56-98.56 98.56s-98.56-43.52-98.56-98.56v-30.72c-25.6-8.96-47.36-29.44-58.88-53.76l-79.36 46.080c-12.8 7.68-29.44 2.56-35.84-10.24-7.68-12.8-2.56-29.44 10.24-35.84l97.28-56.32v-47.36h-106.24c-14.080 0-26.88-11.52-26.88-26.88 0-14.080 11.52-26.88 26.88-26.88h107.52c1.28-16.64 3.84-33.28 10.24-48.64l-79.36-79.36c-10.24-10.24-10.24-26.88 0-37.12 5.12-3.84 11.52-6.4 19.2-6.4s14.080 2.56 19.2 7.68l67.84 67.84c28.16-35.84 70.4-60.16 117.76-62.72 3.84 0 7.68 0 11.52 0 42.24 0 81.92 15.36 112.64 44.8 6.4 5.12 11.52 11.52 16.64 17.92l66.56-66.56c5.12-5.12 11.52-7.68 19.2-7.68s14.080 2.56 19.2 7.68c10.24 10.24 10.24 26.88 0 37.12l-78.080 78.080c5.12 15.36 8.96 33.28 8.96 49.92h107.52c14.080 0 26.88 11.52 26.88 26.88-2.56 12.8-14.080 24.32-29.44 24.32zM299.52 651.52c24.32 0 44.8-20.48 44.8-44.8v-24.32h-90.88v24.32c0 24.32 20.48 44.8 46.080 44.8zM291.84 257.28c-58.88 3.84-104.96 55.040-104.96 116.48v106.24c0 26.88 21.76 48.64 48.64 48.64h128c26.88 0 48.64-21.76 48.64-48.64v-111.36c0-30.72-12.8-60.16-35.84-81.92-23.040-20.48-53.76-32-84.48-29.44z" />
<glyph unicode="&#xe911;" glyph-name="bullhorn" data-tags="bullhorn" horiz-adv-x="584" d="M499.2 243.2c-2.56 0-5.12 0-7.68 0s-5.12 1.28-7.68 1.28l-313.6 126.72h-85.76c-46.080 0-84.48 38.4-84.48 84.48v66.56c0 46.080 38.4 84.48 84.48 84.48h85.76l313.6 125.44c2.56 1.28 5.12 1.28 7.68 1.28 47.36 5.12 88.32-29.44 92.16-75.52 0-1.28 0-1.28 0-2.56v-334.080c0-1.28 0-1.28 0-2.56-3.84-42.24-40.96-75.52-84.48-75.52zM84.48 552.96c-16.64 0-30.72-14.080-30.72-30.72v-66.56c0-16.64 14.080-30.72 30.72-30.72h90.88c3.84 0 6.4-1.28 10.24-2.56l313.6-125.44c15.36 0 28.16 11.52 30.72 26.88v330.24c-2.56 15.36-15.36 25.6-30.72 25.6v0l-314.88-125.44c-2.56-1.28-6.4-1.28-10.24-1.28h-89.6zM104.96 161.28c-15.36 0-26.88 11.52-26.88 26.88v126.72c0 15.36 11.52 26.88 26.88 26.88s26.88-11.52 26.88-26.88v-126.72c0-15.36-12.8-26.88-26.88-26.88z" />
<glyph unicode="&#xe912;" glyph-name="calendar" data-tags="calendar" horiz-adv-x="623" d="M487.68 631.040h-14.080v94.72c0 15.36-11.52 26.88-26.88 26.88s-26.88-11.52-26.88-26.88v-94.72h-217.6v94.72c0 15.36-11.52 26.88-26.88 26.88s-26.88-11.52-26.88-26.88v-94.72h-14.080c-74.24 0-134.4-60.16-134.4-134.4v-217.6c0-74.24 60.16-134.4 134.4-134.4h354.56c74.24 0 134.4 60.16 134.4 134.4v217.6c0 72.96-61.44 134.4-135.68 134.4zM569.6 277.76c0-44.8-37.12-80.64-81.92-80.64h-352c-44.8 0-80.64 35.84-80.64 80.64v217.6c0 44.8 35.84 80.64 80.64 80.64h14.080v-94.72c0-15.36 11.52-26.88 26.88-26.88s26.88 11.52 26.88 26.88v94.72h218.88v-94.72c0-15.36 11.52-26.88 26.88-26.88s26.88 11.52 26.88 26.88v94.72h14.080c44.8 0 80.64-35.84 80.64-80.64v-217.6z" />
<glyph unicode="&#xe913;" glyph-name="certificate" data-tags="certificate" horiz-adv-x="709" d="M355.84 93.44c-38.4 0-53.76 28.16-64 47.36-8.96 17.92-17.92 34.56-43.52 46.080-10.24 3.84-19.2 6.4-28.16 6.4-12.8 0-23.040-3.84-35.84-7.68-11.52-3.84-23.040-7.68-35.84-7.68v0c-16.64 0-30.72 6.4-43.52 19.2-26.88 26.88-17.92 57.6-11.52 79.36 6.4 19.2 11.52 37.12 1.28 62.72s-28.16 34.56-46.080 43.52c-19.2 11.52-47.36 26.88-47.36 65.28s28.16 53.76 47.36 64c17.92 8.96 34.56 17.92 46.080 43.52 10.24 25.6 5.12 43.52-1.28 62.72-6.4 21.76-16.64 51.2 11.52 79.36 12.8 12.8 26.88 17.92 43.52 17.92 12.8 0 24.32-3.84 35.84-7.68s23.040-7.68 35.84-7.68v0c8.96 0 17.92 2.56 28.16 6.4 25.6 10.24 34.56 28.16 43.52 46.080 10.24 20.48 25.6 47.36 64 47.36s53.76-28.16 64-48.64c8.96-17.92 17.92-34.56 43.52-46.080 10.24-3.84 19.2-6.4 28.16-6.4 12.8 0 23.040 3.84 35.84 7.68 11.52 3.84 23.040 7.68 35.84 7.68 16.64 0 30.72-6.4 43.52-17.92 26.88-26.88 17.92-57.6 11.52-79.36-6.4-19.2-11.52-37.12-1.28-62.72s28.16-34.56 46.080-43.52c20.48-10.24 47.36-25.6 47.36-64s-28.16-53.76-47.36-64c-17.92-8.96-34.56-17.92-46.080-43.52-10.24-25.6-5.12-43.52 1.28-62.72 6.4-21.76 16.64-51.2-11.52-79.36-12.8-12.8-26.88-19.2-43.52-19.2-12.8 0-24.32 3.84-35.84 7.68s-23.040 7.68-35.84 7.68c-8.96 0-17.92-2.56-28.16-6.4-25.6-10.24-34.56-28.16-43.52-46.080-11.52-19.2-25.6-47.36-64-47.36zM217.6 247.040c16.64 0 32-3.84 48.64-10.24 43.52-17.92 60.16-49.92 70.4-70.4 10.24-19.2 11.52-19.2 16.64-19.2s6.4 0 16.64 19.2c10.24 20.48 26.88 52.48 70.4 70.4 16.64 6.4 32 10.24 48.64 10.24 20.48 0 37.12-5.12 51.2-10.24 7.68-2.56 15.36-5.12 19.2-5.12 1.28 0 2.56 0 5.12 2.56 3.84 3.84 5.12 5.12-2.56 25.6-6.4 23.040-17.92 56.32 0 99.84s49.92 60.16 70.4 70.4c19.2 10.24 19.2 11.52 19.2 16.64s0 6.4-19.2 16.64c-20.48 10.24-52.48 26.88-70.4 70.4s-7.68 78.080 0 99.84c6.4 20.48 5.12 21.76 2.56 25.6-2.56 2.56-3.84 2.56-5.12 2.56-5.12 0-11.52-2.56-19.2-5.12-14.080-3.84-30.72-10.24-51.2-10.24-16.64 0-32 3.84-48.64 10.24-43.52 17.92-60.16 49.92-70.4 70.4-10.24 19.2-11.52 19.2-16.64 19.2s-6.4 0-16.64-19.2c-10.24-20.48-26.88-52.48-70.4-70.4-16.64-6.4-32-10.24-48.64-10.24v0c-20.48 0-37.12 5.12-51.2 10.24-7.68 2.56-15.36 5.12-19.2 5.12-1.28 0-2.56 0-5.12-2.56-3.84-3.84-5.12-5.12 2.56-25.6 6.4-21.76 17.92-56.32 0-99.84s-49.92-60.16-70.4-70.4c-19.2-10.24-19.2-11.52-19.2-16.64s0-6.4 19.2-16.64c20.48-10.24 52.48-26.88 70.4-70.4s7.68-78.080 0-99.84c-6.4-20.48-5.12-21.76-2.56-25.6 2.56-2.56 3.84-2.56 5.12-2.56 5.12 0 11.52 2.56 19.2 5.12 15.36 5.12 32 10.24 51.2 10.24z" />
<glyph unicode="&#xe914;" glyph-name="chat" data-tags="chat" horiz-adv-x="676" d="M528.64 209.92c-32 0-64 19.2-92.16 53.76-1.28 0-1.28 0-2.56 0-133.12 0-241.92 108.8-241.92 241.92s108.8 241.92 241.92 241.92 241.92-108.8 241.92-241.92c0-65.28-25.6-126.72-71.68-171.52 5.12-39.68-1.28-74.24-19.2-97.28-14.080-16.64-34.56-26.88-56.32-26.88v0zM450.56 318.72c8.96 0 16.64-3.84 21.76-11.52 23.040-32 43.52-43.52 56.32-43.52 6.4 0 10.24 2.56 14.080 6.4 10.24 12.8 12.8 38.4 6.4 66.56-2.56 10.24 1.28 20.48 8.96 26.88 40.96 35.84 64 87.040 64 140.8 0 103.68-84.48 188.16-188.16 188.16s-188.16-84.48-188.16-188.16 84.48-188.16 188.16-188.16c3.84 0 8.96 0 12.8 0 1.28 2.56 3.84 2.56 3.84 2.56zM122.88 148.48c-6.4 0-14.080 1.28-19.2 3.84-30.72 10.24-55.040 47.36-47.36 107.52-35.84 35.84-56.32 85.76-56.32 136.96 0 81.92 48.64 153.6 124.16 183.040 14.080 5.12 29.44-1.28 34.56-15.36s-1.28-29.44-15.36-34.56c-53.76-21.76-89.6-74.24-89.6-133.12 0-40.96 17.92-80.64 48.64-107.52 1.28-1.28 2.56-2.56 3.84-3.84 5.12-6.4 7.68-14.080 5.12-23.040-7.68-39.68 3.84-57.6 10.24-60.16 7.68-2.56 24.32 7.68 38.4 37.12 5.12 10.24 15.36 15.36 25.6 15.36 26.88-1.28 55.040 3.84 79.36 17.92 12.8 7.68 29.44 2.56 37.12-10.24s2.56-29.44-10.24-37.12c-28.16-15.36-60.16-24.32-92.16-24.32-24.32-38.4-53.76-52.48-76.8-52.48z" />
<glyph unicode="&#xe915;" glyph-name="check" data-tags="check" horiz-adv-x="540" d="M177.92 253.44c-6.4 0-14.080 2.56-19.2 7.68l-149.76 151.040c-10.24 10.24-10.24 26.88 0 38.4 10.24 10.24 26.88 10.24 38.4 0l131.84-131.84 316.16 316.16c10.24 10.24 26.88 10.24 38.4 0 10.24-10.24 10.24-26.88 0-38.4l-337.92-335.36c-5.12-5.12-11.52-7.68-17.92-7.68z" />
<glyph unicode="&#xe916;" glyph-name="clock" data-tags="clock" horiz-adv-x="594" d="M296.96 151.040c-163.84 0-296.96 133.12-296.96 296.96s133.12 296.96 296.96 296.96 296.96-133.12 296.96-296.96-133.12-296.96-296.96-296.96zM296.96 691.2c-134.4 0-243.2-108.8-243.2-243.2s108.8-243.2 243.2-243.2 243.2 108.8 243.2 243.2-108.8 243.2-243.2 243.2zM395.52 322.56c-6.4 0-14.080 2.56-19.2 7.68l-98.56 98.56c-5.12 5.12-7.68 11.52-7.68 19.2v185.6c0 15.36 11.52 26.88 26.88 26.88s26.88-11.52 26.88-26.88v-175.36l90.88-90.88c10.24-10.24 10.24-26.88 0-38.4-5.12-3.84-12.8-6.4-19.2-6.4z" />
<glyph unicode="&#xe917;" glyph-name="close" data-tags="close" horiz-adv-x="466" d="M271.36 448l186.88 186.88c10.24 10.24 10.24 26.88 0 38.4-10.24 10.24-26.88 10.24-38.4 0l-186.88-186.88-186.88 186.88c-10.24 10.24-26.88 10.24-38.4 0-10.24-10.24-10.24-26.88 0-38.4l186.88-186.88-186.88-186.88c-10.24-10.24-10.24-26.88 0-38.4 5.12-5.12 12.8-7.68 19.2-7.68s14.080 2.56 19.2 7.68l186.88 186.88 186.88-186.88c5.12-5.12 11.52-7.68 19.2-7.68 6.4 0 14.080 2.56 19.2 7.68 10.24 10.24 10.24 26.88 0 38.4l-186.88 186.88z" />
<glyph unicode="&#xe918;" glyph-name="comment" data-tags="comment" horiz-adv-x="562" d="M232.96 185.6c-35.84 0-55.040 35.84-70.4 64-6.4 10.24-15.36 29.44-20.48 32-3.84 1.28-10.24 2.56-17.92 2.56-21.76 1.28-53.76 5.12-81.92 46.080-25.6 35.84-53.76 133.12-38.4 218.88 8.96 52.48 33.28 92.16 69.12 116.48 57.6 39.68 162.56 44.8 204.8 44.8 75.52 0 180.48-12.8 224-49.92 43.52-35.84 62.72-129.28 58.88-202.24-2.56-66.56-23.040-116.48-56.32-139.52-20.48-14.080-49.92-21.76-96-21.76-19.2 0-37.12 1.28-56.32 2.56-16.64 1.28-32 1.28-46.080 1.28-25.6 0-32-3.84-33.28-3.84-1.28-3.84 1.28-20.48 3.84-28.16 5.12-21.76 14.080-69.12-30.72-80.64-3.84-1.28-7.68-2.56-12.8-2.56zM277.76 656.64c-78.080 0-143.36-12.8-174.080-34.56-24.32-16.64-39.68-43.52-46.080-80.64-12.8-67.84 8.96-151.040 28.16-179.2 15.36-20.48 25.6-21.76 43.52-23.040 10.24-1.28 21.76-1.28 33.28-6.4 21.76-8.96 35.84-33.28 48.64-56.32 3.84-7.68 11.52-20.48 16.64-28.16-1.28 3.84-1.28 7.68-2.56 10.24-5.12 23.040-12.8 58.88 15.36 81.92 16.64 14.080 43.52 15.36 66.56 15.36 15.36 0 30.72-1.28 48.64-1.28 17.92-1.28 35.84-2.56 52.48-2.56 32 0 53.76 3.84 65.28 11.52 19.2 12.8 32 49.92 33.28 98.56 2.56 72.96-17.92 140.8-39.68 158.72-21.76 16.64-96 35.84-189.44 35.84z" />
<glyph unicode="&#xe919;" glyph-name="copyright" data-tags="copyright" horiz-adv-x="625" d="M312.32 266.24c-48.64 0-94.72 19.2-129.28 53.76-71.68 71.68-71.68 186.88 0 257.28 34.56 34.56 80.64 53.76 129.28 53.76v0c48.64 0 94.72-19.2 129.28-53.76 10.24-10.24 10.24-26.88 0-38.4-10.24-10.24-26.88-10.24-38.4 0-24.32 24.32-56.32 37.12-90.88 37.12v0c-34.56 0-66.56-12.8-90.88-37.12-49.92-49.92-49.92-131.84 0-181.76 24.32-24.32 56.32-37.12 90.88-37.12s66.56 12.8 90.88 37.12c10.24 10.24 26.88 10.24 38.4 0 10.24-10.24 10.24-26.88 0-38.4-35.84-34.56-80.64-52.48-129.28-52.48zM312.32 135.68c-172.8 0-312.32 140.8-312.32 312.32s139.52 312.32 312.32 312.32c171.52 0 312.32-139.52 312.32-312.32s-140.8-312.32-312.32-312.32zM312.32 706.56c-142.080 0-258.56-115.2-258.56-258.56s115.2-258.56 258.56-258.56c142.080 0 258.56 115.2 258.56 258.56s-115.2 258.56-258.56 258.56z" />
<glyph unicode="&#xe91a;" glyph-name="cursor" data-tags="cursor" horiz-adv-x="364" d="M209.92 144.64c-10.24 0-20.48 6.4-24.32 16.64l-57.6 136.96-90.88-35.84c-7.68-3.84-17.92-2.56-25.6 2.56s-11.52 12.8-11.52 21.76v437.76c0 10.24 6.4 20.48 16.64 24.32s21.76 1.28 29.44-6.4l309.76-309.76c6.4-6.4 8.96-15.36 7.68-24.32s-7.68-16.64-15.36-19.2l-89.6-38.4 56.32-136.96c5.12-14.080-1.28-29.44-14.080-34.56l-79.36-33.28c-5.12-1.28-7.68-1.28-11.52-1.28zM143.36 359.68c10.24 0 20.48-6.4 24.32-16.64l56.32-136.96 29.44 12.8-56.32 136.96c-5.12 14.080 1.28 29.44 14.080 34.56l78.080 33.28-235.52 235.52v-334.080l79.36 32c2.56 1.28 6.4 2.56 10.24 2.56z" />
<glyph unicode="&#xe91b;" glyph-name="deaf" data-tags="deaf" horiz-adv-x="549" d="M322.56 453.12c-14.080 0-26.88 11.52-26.88 26.88 0 21.76-17.92 39.68-39.68 39.68s-39.68-17.92-39.68-39.68c0-14.080-11.52-26.88-26.88-26.88s-26.88 11.52-26.88 26.88c0 51.2 40.96 92.16 92.16 92.16s92.16-40.96 92.16-92.16c1.28-15.36-10.24-26.88-24.32-26.88zM244.48 162.56c-14.080 0-26.88 11.52-26.88 26.88s11.52 26.88 26.88 26.88c32 0 58.88 25.6 58.88 58.88 0 62.72 33.28 106.24 53.76 125.44 19.2 19.2 30.72 30.72 30.72 79.36 0 72.96-58.88 131.84-131.84 131.84s-131.84-58.88-131.84-131.84c0-14.080-11.52-26.88-26.88-26.88-14.080 0-26.88 11.52-26.88 26.88 0 101.12 83.2 184.32 184.32 184.32s184.32-83.2 184.32-184.32c0-65.28-19.2-89.6-46.080-116.48-14.080-14.080-38.4-44.8-38.4-88.32 1.28-62.72-48.64-112.64-110.080-112.64zM436.48 625.92c-6.4 0-14.080 2.56-19.2 7.68-10.24 10.24-10.24 26.88 0 37.12l55.040 55.040c10.24 10.24 26.88 10.24 37.12 0l32-32c10.24-10.24 10.24-26.88 0-37.12s-26.88-10.24-37.12 0l-12.8 12.8-35.84-35.84c-5.12-5.12-11.52-7.68-19.2-7.68zM61.44 183.040c-6.4 0-14.080 2.56-19.2 7.68l-34.56 34.56c-10.24 10.24-10.24 26.88 0 37.12s26.88 10.24 37.12 0l16.64-16.64 140.8 140.8c10.24 10.24 26.88 10.24 37.12 0s10.24-26.88 0-37.12l-160-158.72c-5.12-5.12-11.52-7.68-17.92-7.68z" />
<glyph unicode="&#xe91c;" glyph-name="delivery" data-tags="delivery" horiz-adv-x="733" d="M578.56 422.4c-84.48 0-153.6-69.12-153.6-153.6s69.12-153.6 153.6-153.6 153.6 69.12 153.6 153.6-66.56 153.6-153.6 153.6zM578.56 167.68c-55.040 0-99.84 44.8-99.84 99.84s44.8 99.84 99.84 99.84 99.84-44.8 99.84-99.84-42.24-99.84-99.84-99.84zM510.72 477.44c10.24-10.24 28.16-10.24 38.4 0s10.24 28.16 0 38.4l-113.92 110.080c-8.96 8.96-24.32 10.24-34.56 2.56l-160-121.6c-6.4-5.12-10.24-12.8-10.24-21.76s3.84-16.64 11.52-21.76l71.68-52.48-48.64-34.56c-30.72 28.16-69.12 46.080-111.36 46.080-84.48 0-153.6-69.12-153.6-153.6s69.12-153.6 153.6-153.6 153.6 69.12 153.6 153.6c0 23.040-5.12 44.8-14.080 65.28l79.36 55.040c7.68 5.12 11.52 12.8 11.52 21.76s-3.84 16.64-11.52 21.76l-72.96 53.76 112.64 85.76 98.56-94.72zM252.16 267.52c0-55.040-44.8-99.84-99.84-99.84s-99.84 44.8-99.84 99.84 44.8 99.84 99.84 99.84c24.32 0 46.080-8.96 64-23.040l-79.36-55.040c-11.52-8.96-15.36-25.6-6.4-37.12 5.12-7.68 14.080-11.52 21.76-11.52 5.12 0 10.24 1.28 15.36 5.12l79.36 55.040c3.84-10.24 5.12-20.48 5.12-33.28zM540.16 611.84c47.36 0 85.76 38.4 85.76 85.76s-38.4 85.76-85.76 85.76-85.76-38.4-85.76-85.76 38.4-85.76 85.76-85.76zM540.16 728.32c17.92 0 32-14.080 32-32s-14.080-32-32-32-32 14.080-32 32 14.080 32 32 32z" />
<glyph unicode="&#xe91d;" glyph-name="divide" data-tags="divide" horiz-adv-x="502" d="M474.88 421.12h-448c-15.36 0-26.88 11.52-26.88 26.88s11.52 26.88 26.88 26.88h448c15.36 0 26.88-11.52 26.88-26.88s-11.52-26.88-26.88-26.88zM250.88 558.080c-43.52 0-79.36 35.84-79.36 79.36s35.84 79.36 79.36 79.36 79.36-35.84 79.36-79.36c0-43.52-35.84-79.36-79.36-79.36zM250.88 663.040c-14.080 0-25.6-11.52-25.6-25.6s11.52-25.6 25.6-25.6 25.6 11.52 25.6 25.6c0 14.080-11.52 25.6-25.6 25.6zM250.88 179.2c-43.52 0-79.36 35.84-79.36 79.36s35.84 79.36 79.36 79.36 79.36-35.84 79.36-79.36c0-44.8-35.84-79.36-79.36-79.36zM250.88 284.16c-14.080 0-25.6-11.52-25.6-25.6s11.52-25.6 25.6-25.6 25.6 11.52 25.6 25.6-11.52 25.6-25.6 25.6z" />
<glyph unicode="&#xe91e;" glyph-name="dollar" data-tags="dollar" horiz-adv-x="259" d="M156.16 472.32v148.48c28.16-10.24 48.64-38.4 48.64-70.4 0-15.36 11.52-26.88 26.88-26.88s26.88 11.52 26.88 26.88c0 61.44-43.52 113.92-102.4 126.72v28.16c0 15.36-11.52 26.88-26.88 26.88s-26.88-11.52-26.88-26.88v-28.16c-58.88-12.8-102.4-64-102.4-126.72s43.52-113.92 102.4-126.72v-148.48c-28.16 10.24-48.64 38.4-48.64 70.4 0 15.36-11.52 26.88-26.88 26.88s-26.88-11.52-26.88-26.88c0-61.44 43.52-113.92 102.4-126.72v-28.16c0-15.36 11.52-26.88 26.88-26.88s26.88 11.52 26.88 26.88v28.16c58.88 12.8 102.4 64 102.4 126.72s-44.8 113.92-102.4 126.72zM53.76 550.4c0 32 20.48 60.16 48.64 70.4v-140.8c-28.16 10.24-48.64 38.4-48.64 70.4zM156.16 275.2v140.8c28.16-10.24 48.64-38.4 48.64-70.4s-20.48-58.88-48.64-70.4z" />
<glyph unicode="&#xe91f;" glyph-name="door-lock" data-tags="door-lock" horiz-adv-x="434" d="M364.8 153.6h-295.68c-24.32 0-47.36 12.8-58.88 34.56-12.8 21.76-12.8 47.36 0 69.12l93.44 177.92c-38.4 33.28-61.44 81.92-61.44 133.12 0 96 78.080 174.080 175.36 174.080s175.36-78.080 175.36-175.36c0-52.48-23.040-99.84-61.44-133.12l94.72-179.2c11.52-21.76 11.52-47.36 0-67.84-14.080-20.48-35.84-33.28-61.44-33.28zM217.6 689.92c-67.84 0-121.6-55.040-121.6-121.6 0-42.24 21.76-80.64 56.32-103.68 11.52-7.68 15.36-23.040 8.96-34.56l-104.96-199.68c-5.12-7.68-1.28-14.080 0-16.64s5.12-7.68 14.080-7.68h296.96c7.68 0 12.8 5.12 14.080 7.68s3.84 8.96 0 15.36c0 0 0 0 0 1.28l-104.96 199.68c-6.4 12.8-2.56 26.88 8.96 34.56 35.84 23.040 56.32 61.44 56.32 103.68-2.56 66.56-57.6 121.6-124.16 121.6z" />
<glyph unicode="&#xe920;" glyph-name="door" data-tags="door" horiz-adv-x="436" d="M424.96 771.84c-3.84 2.56-8.96 3.84-14.080 3.84 0 0 0 0-1.28 0h-384c-14.080 0-26.88-11.52-26.88-26.88v-482.56c0-14.080 11.52-26.88 26.88-26.88h76.8v-93.44c0-8.96 3.84-16.64 11.52-21.76 3.84-2.56 8.96-3.84 14.080-3.84 3.84 0 7.68 1.28 10.24 2.56l282.88 120.32c10.24 3.84 16.64 14.080 16.64 24.32v481.28c-1.28 8.96-5.12 17.92-12.8 23.040zM52.48 294.4v428.8h229.12l-162.56-70.4c-10.24-3.84-16.64-14.080-16.64-24.32v-334.080h-49.92zM384 284.16l-227.84-97.28v424.96l227.84 97.28v-424.96zM244.48 421.12c0-14.845-12.035-26.88-26.88-26.88s-26.88 12.035-26.88 26.88c0 14.845 12.035 26.88 26.88 26.88s26.88-12.035 26.88-26.88z" />
<glyph unicode="&#xe921;" glyph-name="dots-h" data-tags="dots-h" horiz-adv-x="584" d="M424.96 448c0 43.52 35.84 79.36 79.36 79.36s79.36-35.84 79.36-79.36-35.84-79.36-79.36-79.36-79.36 35.84-79.36 79.36zM529.92 448c0 14.080-11.52 25.6-25.6 25.6s-25.6-11.52-25.6-25.6 11.52-25.6 25.6-25.6 25.6 11.52 25.6 25.6zM212.48 448c0 43.52 35.84 79.36 79.36 79.36s79.36-35.84 79.36-79.36-35.84-79.36-79.36-79.36-79.36 35.84-79.36 79.36zM317.44 448c0 14.080-11.52 25.6-25.6 25.6s-25.6-11.52-25.6-25.6 11.52-25.6 25.6-25.6 25.6 11.52 25.6 25.6zM0 448c0 43.52 35.84 79.36 79.36 79.36s79.36-35.84 79.36-79.36-35.84-79.36-79.36-79.36-79.36 35.84-79.36 79.36zM104.96 448c0 14.080-11.52 25.6-25.6 25.6s-25.6-11.52-25.6-25.6 11.52-25.6 25.6-25.6 25.6 11.52 25.6 25.6z" />
<glyph unicode="&#xe922;" glyph-name="dots-v" data-tags="dots-v" horiz-adv-x="159" d="M79.36 581.12c-43.52 0-79.36 35.84-79.36 79.36s35.84 79.36 79.36 79.36 79.36-35.84 79.36-79.36-35.84-79.36-79.36-79.36zM79.36 686.080c-14.080 0-25.6-11.52-25.6-25.6s11.52-25.6 25.6-25.6 25.6 11.52 25.6 25.6c0 14.080-11.52 25.6-25.6 25.6zM79.36 368.64c-43.52 0-79.36 35.84-79.36 79.36s35.84 79.36 79.36 79.36 79.36-35.84 79.36-79.36-35.84-79.36-79.36-79.36zM79.36 473.6c-14.080 0-25.6-11.52-25.6-25.6s11.52-25.6 25.6-25.6 25.6 11.52 25.6 25.6-11.52 25.6-25.6 25.6zM79.36 156.16c-43.52 0-79.36 35.84-79.36 79.36s35.84 79.36 79.36 79.36 79.36-35.84 79.36-79.36c0-43.52-35.84-79.36-79.36-79.36zM79.36 261.12c-14.080 0-25.6-11.52-25.6-25.6s11.52-25.6 25.6-25.6 25.6 11.52 25.6 25.6-11.52 25.6-25.6 25.6z" />
<glyph unicode="&#xe923;" glyph-name="download" data-tags="download" horiz-adv-x="458" d="M431.36 396.8c-15.36 0-26.88-11.52-26.88-26.88v-125.44c0-15.36-11.52-26.88-26.88-26.88h-296.96c-15.36 0-26.88 11.52-26.88 26.88v125.44c0 14.080-11.52 26.88-26.88 26.88s-26.88-12.8-26.88-26.88v-125.44c0-44.8 35.84-80.64 80.64-80.64h296.96c44.8 0 80.64 35.84 80.64 80.64v125.44c0 14.080-11.52 26.88-26.88 26.88zM209.92 368.64c1.28-1.28 6.4-8.96 19.2-8.96s17.92 7.68 19.2 8.96l112.64 112.64c10.24 10.24 10.24 26.88 0 38.4-10.24 10.24-26.88 10.24-38.4 0l-66.56-67.84v253.44c0 15.36-11.52 26.88-26.88 26.88s-26.88-11.52-26.88-26.88v-253.44l-66.56 66.56c-10.24 10.24-26.88 10.24-38.4 0-10.24-10.24-10.24-26.88 0-38.4l112.64-111.36z" />
<glyph unicode="&#xe924;" glyph-name="envelope" data-tags="envelope" horiz-adv-x="667" d="M576 693.76h-483.84c-49.92 0-90.88-40.96-90.88-90.88v-308.48c0-49.92 40.96-90.88 90.88-90.88h483.84c49.92 0 90.88 40.96 90.88 90.88v308.48c0 49.92-39.68 90.88-90.88 90.88zM92.16 640h483.84c20.48 0 37.12-16.64 37.12-37.12v-12.8l-257.28-179.2c-11.52-7.68-33.28-7.68-44.8 0l-257.28 179.2v12.8c1.28 20.48 17.92 37.12 38.4 37.12zM576 256h-483.84c-20.48 0-37.12 16.64-37.12 37.12v231.68l226.56-157.44c15.36-10.24 34.56-15.36 53.76-15.36s38.4 5.12 53.76 15.36l225.28 157.44v-230.4c0-21.76-17.92-38.4-38.4-38.4z" />
<glyph unicode="&#xe925;" glyph-name="exclamation" data-tags="exclamation" horiz-adv-x="79" d="M39.68 256c-12.8 0-25.6 12.8-25.6 26.88v458.24c0 15.36 12.8 26.88 26.88 26.88 15.36 0 26.88-11.52 26.88-26.88v-458.24c0-14.080-12.8-26.88-28.16-26.88zM79.36 167.68c0-21.915-17.765-39.68-39.68-39.68s-39.68 17.765-39.68 39.68c0 21.915 17.765 39.68 39.68 39.68s39.68-17.765 39.68-39.68z" />
<glyph unicode="&#xe926;" glyph-name="eye-slash" data-tags="eye-slash" horiz-adv-x="659" d="M654.080 464.64c-3.84 5.12-72.96 93.44-175.36 145.92l29.44 96c3.84 14.080-3.84 29.44-17.92 33.28s-29.44-3.84-33.28-17.92l-28.16-89.6c-30.72 10.24-64 17.92-98.56 17.92-179.2 0-317.44-177.92-323.84-185.6-7.68-10.24-7.68-23.040 0-33.28 5.12-7.68 134.4-171.52 303.36-184.32l-17.92-57.6c-3.84-14.080 3.84-29.44 17.92-33.28 2.56-1.28 5.12-1.28 7.68-1.28 11.52 0 21.76 7.68 25.6 19.2l23.040 75.52c160 21.76 281.6 175.36 288 183.040 7.68 8.96 7.68 21.76 0 32zM62.72 448c37.12 42.24 144.64 148.48 267.52 148.48 28.16 0 56.32-6.4 83.2-15.36l-8.96-28.16c-21.76 15.36-47.36 23.040-74.24 23.040-70.4 0-128-57.6-128-128s57.6-128 128-128c1.28 0 1.28 0 2.56 0l-6.4-20.48c-121.6 2.56-226.56 107.52-263.68 148.48zM348.16 376.32c-6.4-1.28-12.8-2.56-19.2-2.56-40.96 0-74.24 33.28-74.24 74.24s33.28 74.24 74.24 74.24c21.76 0 42.24-10.24 56.32-25.6l-37.12-120.32zM384 305.92l76.8 252.16c62.72-34.56 112.64-84.48 135.68-110.080-30.72-35.84-112.64-117.76-212.48-142.080z" />
<glyph unicode="&#xe927;" glyph-name="eye" data-tags="eye" horiz-adv-x="659" d="M330.24 245.76c-179.2 0-317.44 177.92-323.84 185.6-7.68 10.24-7.68 23.040 0 33.28 6.4 7.68 144.64 185.6 323.84 185.6s317.44-177.92 323.84-185.6c7.68-10.24 7.68-23.040 0-33.28-6.4-7.68-145.92-185.6-323.84-185.6zM62.72 448c37.12-42.24 144.64-148.48 267.52-148.48s230.4 106.24 267.52 148.48c-37.12 42.24-144.64 148.48-267.52 148.48s-230.4-106.24-267.52-148.48zM330.24 320c-70.4 0-128 57.6-128 128s57.6 128 128 128 128-57.6 128-128-58.88-128-128-128zM330.24 522.24c-40.96 0-74.24-33.28-74.24-74.24s33.28-74.24 74.24-74.24 74.24 33.28 74.24 74.24-33.28 74.24-74.24 74.24z" />
<glyph unicode="&#xe928;" glyph-name="filter" data-tags="filter" horiz-adv-x="687" d="M271.36 136.96c-5.12 0-10.24 1.28-14.080 3.84-7.68 5.12-12.8 14.080-12.8 23.040v279.040l-239.36 271.36c-6.4 7.68-8.96 19.2-3.84 28.16s14.080 15.36 24.32 15.36h633.6c10.24 0 20.48-6.4 24.32-15.36 3.84-10.24 2.56-20.48-3.84-29.44l-249.6-281.6v-202.24c0-10.24-6.4-19.2-15.36-24.32l-130.56-64c-2.56-2.56-7.68-3.84-12.8-3.84zM84.48 705.28l207.36-234.24c3.84-5.12 6.4-11.52 6.4-17.92v-244.48l76.8 38.4v194.56c0 6.4 2.56 12.8 6.4 17.92l217.6 245.76c1.28 0-514.56 0-514.56 0z" />
<glyph unicode="&#xe929;" glyph-name="flag" data-tags="flag" horiz-adv-x="518" d="M513.28 583.68c-6.4 8.96-16.64 12.8-26.88 10.24-121.6-25.6-153.6 3.84-224 69.12-70.4 64-161.28 66.56-208.64 61.44v0c0 15.36-11.52 26.88-26.88 26.88s-26.88-11.52-26.88-26.88v-552.96c0-15.36 11.52-26.88 26.88-26.88s26.88 11.52 26.88 26.88v227.84c21.76 20.48 93.44 80.64 194.56 33.28 128-61.44 230.4 52.48 267.52 121.6 3.84 10.24 3.84 20.48-2.56 29.44zM410.88 508.16c-46.080-39.68-90.88-48.64-138.24-25.6-88.32 42.24-166.4 19.2-217.6-12.8v200.96c37.12 3.84 115.2 5.12 171.52-47.36 65.28-60.16 110.080-98.56 207.36-92.16-7.68-7.68-14.080-15.36-23.040-23.040z" />
<glyph unicode="&#xe92a;" glyph-name="folder" data-tags="folder" horiz-adv-x="733" d="M715.52 686.080c-16.64 20.48-40.96 30.72-67.84 30.72h-225.28c-15.36 0-26.88-11.52-26.88-26.88s11.52-26.88 26.88-26.88h224c11.52 0 20.48-3.84 26.88-11.52s8.96-20.48 6.4-32l-49.92-211.2-16.64 124.16c-6.4 48.64-49.92 87.040-99.84 87.040h-154.88c-6.4 12.8-15.36 30.72-20.48 39.68-8.96 19.2-28.16 57.6-87.040 57.6h-75.52c-58.88 0-79.36-38.4-88.32-57.6-3.84-8.96-14.080-28.16-20.48-40.96-17.92-3.84-33.28-12.8-46.080-25.6-15.36-19.2-23.040-42.24-19.2-67.84l34.56-258.56c6.4-48.64 51.2-87.040 99.84-87.040h430.080c24.32 0 47.36 10.24 62.72 28.16 10.24 11.52 16.64 26.88 19.2 42.24l83.2 358.4c7.68 29.44 1.28 57.6-15.36 78.080zM567.040 232.96h-431.36c-21.76 0-43.52 19.2-46.080 40.96l-34.56 258.56c-1.28 8.96 1.28 17.92 6.4 24.32s12.8 8.96 23.040 8.96 19.2 5.12 24.32 14.080c0 0 20.48 40.96 28.16 53.76 7.68 16.64 14.080 28.16 40.96 28.16h75.52c25.6 0 32-11.52 40.96-28.16 6.4-14.080 28.16-53.76 28.16-53.76 5.12-8.96 14.080-14.080 24.32-14.080h171.52c21.76 0 43.52-19.2 46.080-40.96l34.56-258.56c1.28-8.96-1.28-17.92-6.4-24.32-8.96-6.4-16.64-8.96-25.6-8.96z" />
<glyph unicode="&#xe92b;" glyph-name="gift" data-tags="gift" horiz-adv-x="477" d="M414.72 597.76h-42.24c38.4 21.76 72.96 49.92 81.92 81.92 3.84 16.64 5.12 42.24-19.2 67.84-16.64 19.2-37.12 28.16-57.6 28.16-58.88 0-108.8-78.080-136.96-136.96-29.44 58.88-78.080 136.96-136.96 136.96-21.76 0-40.96-8.96-57.6-28.16-24.32-25.6-23.040-51.2-19.2-67.84 8.96-32 43.52-60.16 81.92-81.92h-44.8c-34.56 0-62.72-28.16-62.72-62.72v-352c0-34.56 28.16-62.72 62.72-62.72h352c34.56 0 62.72 28.16 62.72 62.72v352c-2.56 34.56-29.44 62.72-64 62.72zM423.68 535.040v-148.48h-158.72v157.44h148.48c6.4 0 10.24-3.84 10.24-8.96zM376.32 721.92c5.12 0 11.52-3.84 17.92-10.24 8.96-8.96 7.68-14.080 6.4-16.64-6.4-24.32-60.16-55.040-112.64-76.8 26.88 52.48 62.72 103.68 88.32 103.68zM75.52 693.76c-1.28 2.56-2.56 7.68 6.4 16.64 6.4 7.68 12.8 10.24 17.92 10.24 25.6 0 60.16-51.2 87.040-104.96-51.2 23.040-104.96 53.76-111.36 78.080zM62.72 544h148.48v-157.44h-157.44v148.48c0 5.12 5.12 8.96 8.96 8.96zM53.76 183.040v149.76h157.44v-157.44h-148.48c-3.84-1.28-8.96 2.56-8.96 7.68zM414.72 174.080h-149.76v158.72h157.44v-148.48c1.28-6.4-2.56-10.24-7.68-10.24z" />
<glyph unicode="&#xe92c;" glyph-name="graduation-cap" data-tags="graduation-cap" horiz-adv-x="704" d="M674.56 549.12l-285.44 103.68c-12.8 5.12-28.16 6.4-37.12 6.4-10.24 0-24.32-1.28-37.12-6.4l-285.44-103.68c-26.88-10.24-29.44-28.16-29.44-35.84s2.56-25.6 29.44-35.84l12.8-3.84v-106.24c0-15.36 11.52-26.88 26.88-26.88s26.88 11.52 26.88 26.88v87.040l49.92-17.92v-120.32c0-52.48 122.88-78.080 206.080-78.080s206.080 24.32 206.080 78.080v119.040l116.48 42.24c26.88 8.96 29.44 28.16 29.44 35.84s-2.56 25.6-29.44 35.84zM505.6 322.56c-15.36-10.24-72.96-30.72-152.32-30.72s-138.24 20.48-152.32 30.72v93.44l115.2-42.24c12.8-5.12 28.16-6.4 37.12-6.4s24.32 1.28 37.12 6.4l115.2 42.24v-93.44zM371.2 424.96c-8.96-3.84-28.16-3.84-37.12 0l-244.48 88.32 243.2 88.32c8.96 3.84 28.16 3.84 37.12 0l244.48-88.32-243.2-88.32z" />
<glyph unicode="&#xe92d;" glyph-name="hashtag" data-tags="hashtag" horiz-adv-x="503" d="M476.16 367.36h-89.6v161.28h89.6c15.36 0 26.88 11.52 26.88 26.88s-11.52 26.88-26.88 26.88h-89.6v96c0 15.36-11.52 26.88-26.88 26.88s-26.88-12.8-26.88-26.88v-94.72h-161.28v94.72c0 15.36-11.52 26.88-26.88 26.88s-26.88-12.8-26.88-26.88v-94.72h-89.6c-15.36 0-26.88-11.52-26.88-26.88s11.52-26.88 26.88-26.88h89.6v-162.56h-89.6c-15.36 0-26.88-11.52-26.88-26.88s11.52-26.88 26.88-26.88h89.6v-96c0-15.36 11.52-26.88 26.88-26.88s26.88 11.52 26.88 26.88v94.72h162.56v-94.72c0-15.36 11.52-26.88 26.88-26.88s26.88 11.52 26.88 26.88v94.72h89.6c15.36 0 26.88 11.52 26.88 26.88s-14.080 28.16-28.16 28.16zM171.52 367.36v161.28h162.56v-162.56h-162.56v1.28z" />
<glyph unicode="&#xe92e;" glyph-name="headphones" data-tags="headphones" horiz-adv-x="567" d="M444.16 186.88c-15.36 0-26.88 11.52-26.88 26.88v152.32c0 15.36 11.52 26.88 26.88 26.88s26.88-11.52 26.88-26.88v-152.32c0-15.36-11.52-26.88-26.88-26.88zM122.88 186.88c-15.36 0-26.88 11.52-26.88 26.88v152.32c0 15.36 11.52 26.88 26.88 26.88s26.88-11.52 26.88-26.88v-152.32c-1.28-15.36-14.080-26.88-26.88-26.88zM536.32 262.4c-1.28 0-2.56 0-3.84 0-14.080 2.56-24.32 15.36-23.040 30.72 0 1.28 26.88 192-61.44 295.68-38.4 43.52-93.44 66.56-163.84 66.56s-125.44-21.76-163.84-66.56c-89.6-103.68-61.44-293.12-61.44-295.68 2.56-14.080-7.68-28.16-23.040-30.72-14.080-2.56-28.16 7.68-30.72 23.040-2.56 8.96-30.72 216.32 72.96 339.2 48.64 56.32 117.76 85.76 204.8 85.76s156.16-28.16 204.8-85.76c104.96-121.6 75.52-330.24 74.24-337.92-1.28-14.080-12.8-24.32-25.6-24.32z" />
<glyph unicode="&#xe92f;" glyph-name="heart" data-tags="heart" horiz-adv-x="545" d="M270.080 190.72c-71.68 0-268.8 171.52-268.8 345.6 0 93.44 76.8 170.24 170.24 170.24 37.12 0 72.96-11.52 102.4-34.56 29.44 21.76 65.28 34.56 102.4 34.56 93.44 0 170.24-76.8 170.24-170.24-2.56-158.72-212.48-345.6-276.48-345.6zM170.24 651.52c-64 0-116.48-52.48-116.48-116.48 1.28-151.040 183.040-289.28 216.32-291.84 37.12 3.84 222.72 163.84 222.72 291.84 0 64-52.48 116.48-116.48 116.48-32 0-61.44-12.8-83.2-34.56-10.24-10.24-28.16-10.24-38.4 0-23.040 23.040-52.48 34.56-84.48 34.56z" />
<glyph unicode="&#xe930;" glyph-name="heartbeat" data-tags="heartbeat" horiz-adv-x="737" d="M327.68 197.12c-1.28 0-1.28 0-2.56 0-12.8 1.28-23.040 11.52-24.32 24.32l-32 318.72-28.16-87.040c-3.84-11.52-14.080-17.92-25.6-17.92h-188.16c-15.36 0-26.88 11.52-26.88 25.6s11.52 26.88 26.88 26.88h170.24l61.44 192c3.84 11.52 15.36 19.2 28.16 17.92s21.76-11.52 23.040-24.32l30.72-311.040 65.28 222.72c3.84 11.52 12.8 19.2 25.6 19.2 11.52 0 21.76-8.96 25.6-20.48l35.84-154.88 26.88 39.68c5.12 7.68 12.8 11.52 21.76 11.52h168.96c14.080 0 26.88-11.52 26.88-26.88 0-14.080-11.52-26.88-26.88-26.88h-154.88l-52.48-78.080c-6.4-8.96-16.64-12.8-26.88-11.52s-19.2 10.24-20.48 20.48l-26.88 115.2-75.52-258.56c-3.84-8.96-14.080-16.64-25.6-16.64z" />
<glyph unicode="&#xe931;" glyph-name="home" data-tags="home" horiz-adv-x="650" d="M642.56 512l-229.12 229.12c-48.64 48.64-126.72 48.64-175.36 0l-230.4-229.12c-10.24-10.24-10.24-26.88 0-38.4 10.24-10.24 26.88-10.24 38.4 0l16.64 16.64v-290.56c0-49.92 37.12-80.64 98.56-80.64 58.88 0 101.12 33.28 101.12 80.64v167.68c0 16.64 7.68 44.8 62.72 44.8s62.72-28.16 62.72-44.8v-167.68c0-20.48 7.68-38.4 21.76-52.48 17.92-17.92 46.080-28.16 79.36-28.16 61.44 0 98.56 30.72 98.56 80.64v290.56l16.64-16.64c5.12-5.12 11.52-7.68 19.2-7.68 6.4 0 14.080 2.56 19.2 7.68 10.24 10.24 10.24 26.88 0 38.4zM533.76 199.68c0-17.92-15.36-26.88-44.8-26.88-17.92 0-33.28 5.12-40.96 12.8-3.84 3.84-5.12 8.96-5.12 15.36v166.4c0 60.16-46.080 98.56-116.48 98.56s-116.48-38.4-116.48-98.56v-167.68c0-26.88-44.8-26.88-47.36-26.88-44.8 0-44.8 19.2-44.8 26.88v344.32l158.72 158.72c12.8 12.8 30.72 20.48 49.92 20.48s37.12-7.68 49.92-20.48l158.72-158.72-1.28-344.32z" />
<glyph unicode="&#xe932;" glyph-name="hourglass" data-tags="hourglass" horiz-adv-x="458" d="M26.88 691.2h15.36c12.8-99.84 88.32-231.68 186.88-231.68s174.080 131.84 186.88 231.68h15.36c14.080 0 26.88 11.52 26.88 26.88s-11.52 26.88-26.88 26.88h-404.48c-15.36 0-26.88-11.52-26.88-26.88s11.52-26.88 26.88-26.88zM229.12 513.28c-61.44 0-120.32 101.12-131.84 177.92h263.68c-11.52-76.8-70.4-177.92-131.84-177.92zM431.36 204.8h-15.36c-12.8 99.84-88.32 231.68-186.88 231.68s-174.080-130.56-186.88-231.68h-15.36c-15.36 0-26.88-11.52-26.88-26.88s11.52-26.88 26.88-26.88h404.48c14.080 0 26.88 11.52 26.88 26.88s-11.52 26.88-26.88 26.88zM229.12 382.72c61.44 0 120.32-101.12 131.84-177.92h-263.68c11.52 76.8 70.4 177.92 131.84 177.92z" />
<glyph unicode="&#xe933;" glyph-name="infinity" data-tags="infinity" horiz-adv-x="667" d="M129.28 316.16v0c-28.16 0-58.88 11.52-81.92 29.44-20.48 17.92-46.080 48.64-46.080 102.4 0 88.32 72.96 128 120.32 131.84 57.6 5.12 135.68-43.52 217.6-99.84 80.64 53.76 156.16 102.4 213.76 99.84 46.080-2.56 115.2-39.68 115.2-131.84 0-89.6-67.84-128-112.64-131.84-2.56 0-5.12 0-7.68 0-56.32 0-130.56 47.36-208.64 99.84-80.64-52.48-152.32-99.84-209.92-99.84zM129.28 526.080c-1.28 0-2.56 0-3.84 0-19.2-1.28-70.4-19.2-70.4-78.080 0-64 47.36-75.52 75.52-78.080 37.12-3.84 99.84 38.4 161.28 78.080-64 39.68-124.16 78.080-162.56 78.080zM386.56 448c62.72-42.24 128-80.64 163.84-78.080 21.76 1.28 64 20.48 64 78.080 0 58.88-42.24 76.8-65.28 78.080-37.12 2.56-101.12-37.12-162.56-78.080z" />
<glyph unicode="&#xe934;" glyph-name="info" data-tags="info" horiz-adv-x="212" d="M185.6 256h-52.48v224c0 15.36-11.52 26.88-26.88 26.88h-79.36c-15.36 0-26.88-11.52-26.88-26.88s11.52-26.88 26.88-26.88h52.48v-197.12h-52.48c-15.36 0-26.88-11.52-26.88-26.88s11.52-26.88 26.88-26.88h158.72c14.080 0 26.88 11.52 26.88 26.88s-11.52 26.88-26.88 26.88zM106.24 535.040c-43.52 0-79.36 35.84-79.36 79.36s35.84 79.36 79.36 79.36 79.36-35.84 79.36-79.36-35.84-79.36-79.36-79.36zM106.24 640c-14.080 0-25.6-11.52-25.6-25.6s11.52-25.6 25.6-25.6 25.6 11.52 25.6 25.6-11.52 25.6-25.6 25.6z" />
<glyph unicode="&#xe935;" glyph-name="key" data-tags="key" horiz-adv-x="584" d="M136.96 311.040c-75.52 0-136.96 61.44-136.96 136.96s61.44 136.96 136.96 136.96c47.36 0 92.16-25.6 116.48-65.28h256c39.68 0 72.96-32 72.96-72.96 0-39.68-32-72.96-72.96-72.96-2.56 0-8.96-3.84-14.080-7.68-10.24-6.4-24.32-15.36-43.52-15.36s-33.28 8.96-43.52 15.36c-5.12 3.84-11.52 7.68-14.080 7.68s-8.96-3.84-14.080-7.68c-10.24-6.4-24.32-15.36-43.52-15.36s-33.28 8.96-43.52 15.36c-5.12 3.84-11.52 7.68-14.080 7.68h-25.6c-24.32-38.4-67.84-62.72-116.48-62.72zM136.96 532.48c-46.080 0-84.48-38.4-84.48-84.48s38.4-84.48 84.48-84.48c33.28 0 62.72 19.2 76.8 49.92 3.84 8.96 14.080 15.36 24.32 15.36h40.96c19.2 0 33.28-8.96 43.52-15.36 5.12-3.84 11.52-7.68 14.080-7.68s8.96 3.84 14.080 7.68c10.24 6.4 24.32 15.36 43.52 15.36s33.28-8.96 43.52-15.36c5.12-3.84 11.52-7.68 14.080-7.68s8.96 3.84 14.080 7.68c10.24 6.4 24.32 15.36 43.52 15.36 10.24 0 19.2 8.96 19.2 19.2s-8.96 19.2-19.2 19.2h-271.36c-10.24 0-19.2 6.4-24.32 15.36-12.8 30.72-43.52 49.92-76.8 49.92zM158.72 448c0-15.552-12.608-28.16-28.16-28.16s-28.16 12.608-28.16 28.16c0 15.552 12.608 28.16 28.16 28.16s28.16-12.608 28.16-28.16z" />
<glyph unicode="&#xe936;" glyph-name="laptop" data-tags="laptop" horiz-adv-x="778" d="M613.12 268.8h-448c-47.36 0-87.040 38.4-87.040 87.040v285.44c0 47.36 38.4 87.040 87.040 87.040h449.28c47.36 0 87.040-38.4 87.040-87.040v-285.44c-1.28-48.64-40.96-87.040-88.32-87.040zM165.12 673.28c-17.92 0-33.28-14.080-33.28-33.28v-285.44c0-17.92 14.080-33.28 33.28-33.28h449.28c17.92 0 33.28 14.080 33.28 33.28v286.72c0 17.92-14.080 33.28-33.28 33.28l-449.28-1.28zM751.36 168.96h-724.48c-15.36 0-26.88 11.52-26.88 26.88s11.52 26.88 26.88 26.88h724.48c15.36 0 26.88-11.52 26.88-26.88s-12.8-26.88-26.88-26.88z" />
<glyph unicode="&#xe937;" glyph-name="leaf" data-tags="leaf" horiz-adv-x="599" d="M583.68 718.080c-16.64 21.76-44.8 33.28-69.12 28.16-28.16-1.28-267.52-19.2-385.28-136.96-81.92-81.92-85.76-213.76-12.8-305.92l-107.52-107.52c-10.24-10.24-10.24-26.88 0-38.4 5.12-5.12 11.52-7.68 19.2-7.68s14.080 2.56 19.2 7.68l107.52 107.52c42.24-33.28 93.44-52.48 147.2-52.48 60.16 0 116.48 23.040 158.72 65.28 122.88 122.88 136.96 357.12 138.24 385.28 2.56 19.2-2.56 38.4-15.36 55.040zM545.28 673.28c0-1.28-1.28-3.84-1.28-5.12 0-2.56-8.96-239.36-121.6-352-32-32-74.24-49.92-120.32-49.92-39.68 0-78.080 12.8-108.8 37.12l235.52 235.52c10.24 10.24 10.24 26.88 0 38.4-10.24 10.24-26.88 10.24-38.4 0l-235.52-236.8c-52.48 70.4-49.92 168.96 11.52 230.4 107.52 107.52 349.44 121.6 352 121.6 1.28 0 3.84 0 5.12 1.28 1.28 0 1.28 0 2.56 0 5.12 0 10.24-3.84 14.080-8.96 3.84-3.84 5.12-7.68 5.12-11.52z" />
<glyph unicode="&#xe938;" glyph-name="link" data-tags="link" horiz-adv-x="660" d="M144.64 200.96v0c-38.4 0-75.52 15.36-102.4 42.24-26.88 28.16-42.24 64-42.24 102.4s15.36 75.52 42.24 102.4l135.68 135.68c25.6 25.6 60.16 40.96 97.28 42.24 15.36 0 26.88-11.52 28.16-25.6 0-15.36-11.52-26.88-25.6-28.16-23.040-1.28-44.8-10.24-61.44-26.88l-135.68-134.4c-16.64-16.64-26.88-39.68-26.88-64s8.96-47.36 26.88-64c16.64-16.64 39.68-26.88 64-26.88s47.36 8.96 64 26.88l135.68 135.68c16.64 16.64 26.88 39.68 26.88 64 0 15.36 11.52 26.88 26.88 26.88s26.88-11.52 26.88-26.88c0-38.4-15.36-75.52-42.24-102.4l-135.68-135.68c-28.16-28.16-64-43.52-102.4-43.52zM384 270.080c-14.080 0-25.6 11.52-26.88 25.6 0 15.36 10.24 26.88 25.6 28.16 23.040 1.28 44.8 10.24 60.16 26.88l136.96 135.68c35.84 35.84 35.84 93.44 0 128-35.84 35.84-93.44 35.84-128 0l-136.96-135.68c-16.64-16.64-25.6-38.4-26.88-61.44 0-15.36-12.8-25.6-28.16-25.6s-26.88 12.8-25.6 28.16c1.28 37.12 16.64 71.68 42.24 97.28l136.96 135.68c56.32 56.32 148.48 56.32 204.8 0s56.32-148.48 0-204.8l-136.96-135.68c-25.6-25.6-58.88-40.96-97.28-42.24 1.28 0 0 0 0 0z" />
<glyph unicode="&#xe939;" glyph-name="location-arrow" data-tags="location-arrow" horiz-adv-x="581" d="M326.4 157.44c0 0-1.28 0-1.28 0-11.52 1.28-20.48 8.96-24.32 19.2l-62.72 218.88-218.88 62.72c-10.24 2.56-17.92 12.8-19.2 24.32s5.12 21.76 15.36 25.6l528.64 227.84c10.24 3.84 21.76 2.56 29.44-5.12s10.24-19.2 5.12-29.44l-227.84-527.36c-3.84-10.24-14.080-16.64-24.32-16.64zM104.96 488.96l162.56-46.080c8.96-2.56 15.36-8.96 17.92-17.92l46.080-162.56 172.8 398.080-399.36-171.52z" />
<glyph unicode="&#xe93a;" glyph-name="lock" data-tags="lock" horiz-adv-x="429" d="M358.4 481.28h-6.4v104.96c0 75.52-61.44 138.24-138.24 138.24-75.52 0-136.96-61.44-136.96-138.24v-104.96h-6.4c-38.4 0-70.4-32-70.4-70.4v-168.96c0-38.4 32-70.4 70.4-70.4h288c38.4 0 70.4 32 70.4 70.4v168.96c1.28 39.68-30.72 70.4-70.4 70.4zM131.84 586.24c0 46.080 37.12 84.48 84.48 84.48 46.080 0 84.48-37.12 84.48-84.48v-104.96h-168.96v104.96zM375.040 241.92c0-8.96-7.68-16.64-16.64-16.64h-286.72c-8.96 0-16.64 7.68-16.64 16.64v168.96c0 8.96 7.68 16.64 16.64 16.64h288c8.96 0 16.64-7.68 16.64-16.64l-1.28-168.96z" />
<glyph unicode="&#xe93b;" glyph-name="magnet-alt" data-tags="magnet-alt" horiz-adv-x="534" d="M117.76 620.8h-88.32c-15.36 0-26.88 11.52-26.88 26.88v85.76c0 15.36 11.52 26.88 26.88 26.88h88.32c15.36 0 26.88-11.52 26.88-26.88v-85.76c0-14.080-11.52-26.88-26.88-26.88zM56.32 674.56h35.84v32h-35.84v-32zM505.6 620.8h-88.32c-15.36 0-26.88 11.52-26.88 26.88v85.76c0 15.36 11.52 26.88 26.88 26.88h88.32c15.36 0 26.88-11.52 26.88-26.88v-85.76c0-14.080-11.52-26.88-26.88-26.88zM444.16 674.56h35.84v32h-35.84v-32zM267.52 135.68c-74.24 0-134.4 25.6-179.2 75.52-108.8 121.6-87.040 346.88-85.76 355.84 1.28 14.080 12.8 24.32 26.88 24.32h88.32c7.68 0 14.080-2.56 19.2-8.96 5.12-5.12 7.68-12.8 7.68-20.48-2.56-49.92 1.28-193.28 56.32-253.44 17.92-17.92 38.4-26.88 64-26.88h3.84c25.6 0 46.080 8.96 64 26.88 56.32 60.16 60.16 203.52 56.32 253.44 0 7.68 2.56 14.080 7.68 20.48s12.8 8.96 19.2 8.96h88.32c14.080 0 25.6-10.24 26.88-24.32 1.28-8.96 23.040-234.24-85.76-355.84-43.52-49.92-103.68-75.52-177.92-75.52zM55.040 537.6c-2.56-57.6 0-208.64 74.24-290.56 34.56-38.4 80.64-57.6 139.52-57.6s104.96 19.2 139.52 57.6c74.24 83.2 76.8 232.96 74.24 290.56h-35.84c0-58.88-6.4-194.56-71.68-264.96-28.16-29.44-62.72-44.8-102.4-44.8h-3.84c-40.96 0-75.52 15.36-102.4 44.8-69.12 70.4-75.52 206.080-75.52 264.96 0 0-35.84 0-35.84 0z" />
<glyph unicode="&#xe93c;" glyph-name="magnet" data-tags="magnet" horiz-adv-x="534" d="M416 275.2h88.32c15.36 0 26.88-11.52 26.88-26.88v-85.76c0-15.36-11.52-26.88-26.88-26.88h-88.32c-15.36 0-26.88 11.52-26.88 26.88v85.76c0 14.080 11.52 26.88 26.88 26.88zM477.44 221.44h-35.84v-32h35.84v32zM28.16 275.2h88.32c15.36 0 26.88-11.52 26.88-26.88v-85.76c0-15.36-11.52-26.88-26.88-26.88h-88.32c-15.36 0-26.88 11.52-26.88 26.88v85.76c0 14.080 11.52 26.88 26.88 26.88zM89.6 221.44h-35.84v-32h35.84v32zM266.24 760.32c74.24 0 134.4-25.6 179.2-75.52 108.8-121.6 87.040-346.88 85.76-355.84-1.28-14.080-12.8-24.32-26.88-24.32h-88.32c-7.68 0-14.080 2.56-19.2 8.96-5.12 5.12-7.68 12.8-7.68 20.48 2.56 49.92-1.28 193.28-56.32 253.44-17.92 17.92-38.4 26.88-64 26.88h-3.84c-25.6 0-46.080-8.96-64-26.88-56.32-60.16-60.16-203.52-56.32-253.44 0-7.68-2.56-14.080-7.68-20.48s-12.8-8.96-19.2-8.96h-88.32c-14.080 0-25.6 10.24-26.88 24.32-1.28 8.96-23.040 234.24 85.76 355.84 43.52 49.92 103.68 75.52 177.92 75.52zM478.72 358.4c2.56 57.6 0 208.64-74.24 290.56-34.56 38.4-80.64 57.6-139.52 57.6s-104.96-19.2-139.52-57.6c-74.24-83.2-76.8-232.96-74.24-290.56h35.84c0 58.88 6.4 194.56 71.68 264.96 28.16 29.44 62.72 44.8 102.4 44.8h3.84c40.96 0 75.52-15.36 102.4-44.8 69.12-70.4 75.52-206.080 75.52-264.96h35.84z" />
<glyph unicode="&#xe93d;" glyph-name="map-marker" data-tags="map-marker" horiz-adv-x="522" d="M261.12 97.28c-28.16 0-52.48 12.8-65.28 34.56l-161.28 288c-21.76 37.12-34.56 80.64-34.56 125.44 0 139.52 117.76 253.44 261.12 253.44 144.64 0 261.12-113.92 261.12-253.44 0-44.8-12.8-88.32-35.84-126.72l-158.72-285.44c-14.080-23.040-38.4-35.84-66.56-35.84zM261.12 744.96c-113.92 0-207.36-89.6-207.36-199.68 0-34.56 8.96-69.12 28.16-99.84l161.28-286.72c2.56-5.12 10.24-7.68 19.2-7.68s16.64 3.84 19.2 8.96l160 285.44c17.92 30.72 28.16 65.28 28.16 99.84-1.28 110.080-93.44 199.68-208.64 199.68zM261.12 442.88c-52.48 0-94.72 43.52-94.72 94.72 0 52.48 42.24 94.72 94.72 94.72s94.72-42.24 94.72-94.72c0-51.2-42.24-94.72-94.72-94.72zM261.12 578.56c-23.040 0-40.96-17.92-40.96-40.96s17.92-40.96 40.96-40.96 40.96 17.92 40.96 40.96-17.92 40.96-40.96 40.96z" />
<glyph unicode="&#xe93e;" glyph-name="menu" data-tags="menu" horiz-adv-x="518" d="M492.8 556.8h-465.92c-15.36 0-26.88 11.52-26.88 26.88s11.52 26.88 26.88 26.88h464.64c15.36 0 26.88-11.52 26.88-26.88 1.28-14.080-11.52-26.88-25.6-26.88zM492.8 421.12h-465.92c-15.36 0-26.88 11.52-26.88 26.88s11.52 26.88 26.88 26.88h464.64c15.36 0 26.88-11.52 26.88-26.88s-11.52-26.88-25.6-26.88zM492.8 285.44h-465.92c-15.36 0-26.88 11.52-26.88 26.88s11.52 26.88 26.88 26.88h464.64c15.36 0 26.88-11.52 26.88-26.88s-11.52-26.88-25.6-26.88z" />
<glyph unicode="&#xe93f;" glyph-name="minus" data-tags="minus" horiz-adv-x="502" d="M474.88 421.12h-448c-15.36 0-26.88 11.52-26.88 26.88s11.52 26.88 26.88 26.88h448c15.36 0 26.88-11.52 26.88-26.88s-11.52-26.88-26.88-26.88z" />
<glyph unicode="&#xe940;" glyph-name="mobile" data-tags="mobile" horiz-adv-x="492" d="M378.88 69.12h-266.24c-62.72 0-112.64 51.2-112.64 112.64v532.48c0 62.72 51.2 112.64 112.64 112.64h266.24c62.72 0 112.64-51.2 112.64-112.64v-532.48c0-61.44-49.92-112.64-112.64-112.64zM112.64 773.12c-32 0-58.88-26.88-58.88-58.88v-532.48c0-32 26.88-58.88 58.88-58.88h266.24c32 0 58.88 26.88 58.88 58.88v532.48c0 32-26.88 58.88-58.88 58.88h-266.24zM245.76 156.16c-48.64 0-88.32 39.68-88.32 88.32s39.68 88.32 88.32 88.32 88.32-39.68 88.32-88.32c0-48.64-39.68-88.32-88.32-88.32zM245.76 280.32c-19.2 0-34.56-15.36-34.56-34.56s15.36-34.56 34.56-34.56 34.56 15.36 34.56 34.56c1.28 17.92-15.36 34.56-34.56 34.56z" />
<glyph unicode="&#xe941;" glyph-name="more-or-less" data-tags="more-or-less" horiz-adv-x="392" d="M360.96 259.84h-331.52c-15.36 0-26.88-11.52-26.88-26.88s11.52-26.88 26.88-26.88h331.52c15.36 0 26.88 11.52 26.88 26.88 0 14.080-11.52 26.88-26.88 26.88zM26.88 467.2h142.080v-142.080c0-15.36 11.52-26.88 26.88-26.88s26.88 11.52 26.88 26.88v142.080h142.080c15.36 0 26.88 11.52 26.88 26.88s-11.52 26.88-26.88 26.88h-142.080v142.080c0 15.36-11.52 26.88-26.88 26.88s-26.88-11.52-26.88-26.88v-142.080h-142.080c-15.36 0-26.88-11.52-26.88-26.88 0-14.080 11.52-26.88 26.88-26.88z" />
<glyph unicode="&#xe942;" glyph-name="music-alt" data-tags="music-alt" horiz-adv-x="349" d="M190.72 734.72c-8.96 3.84-17.92 3.84-25.6-1.28s-12.8-14.080-12.8-23.040v-360.96c-14.080 7.68-30.72 12.8-48.64 12.8-56.32 0-102.4-46.080-102.4-102.4s46.080-102.4 102.4-102.4 102.4 46.080 102.4 102.4v403.2c38.4-28.16 90.88-80.64 90.88-154.88 0-15.36 11.52-26.88 26.88-26.88s26.88 11.52 26.88 26.88c0 148.48-153.6 224-160 226.56zM103.68 212.48c-26.88 0-48.64 21.76-48.64 48.64s21.76 48.64 48.64 48.64 48.64-21.76 48.64-48.64c0-28.16-23.040-48.64-48.64-48.64z" />
<glyph unicode="&#xe943;" glyph-name="music" data-tags="music" horiz-adv-x="527" d="M514.56 808.96c-7.68 5.12-17.92 5.12-25.6 1.28l-322.56-149.76c-8.96-3.84-15.36-14.080-15.36-24.32v-360.96c-14.080 7.68-30.72 12.8-48.64 12.8-56.32 0-102.4-46.080-102.4-102.4s46.080-102.4 102.4-102.4 102.4 46.080 102.4 102.4v304.64l268.8 125.44v-190.72c-14.080 7.68-30.72 12.8-48.64 12.8-56.32 0-102.4-46.080-102.4-102.4s46.080-102.4 102.4-102.4 102.4 46.080 102.4 102.4v450.56c-1.28 8.96-5.12 17.92-12.8 23.040zM102.4 136.96c-26.88 0-48.64 21.76-48.64 48.64s21.76 48.64 48.64 48.64 48.64-21.76 48.64-48.64-23.040-48.64-48.64-48.64zM203.52 549.12v69.12l268.8 125.44v-69.12l-268.8-125.44zM424.96 286.72c-26.88 0-48.64 21.76-48.64 48.64s21.76 48.64 48.64 48.64 48.64-21.76 48.64-48.64c-1.28-26.88-23.040-48.64-48.64-48.64z" />
<glyph unicode="&#xe944;" glyph-name="note" data-tags="note" horiz-adv-x="535" d="M459.52 734.72h-7.68v43.52c0 15.36-11.52 26.88-26.88 26.88s-26.88-11.52-26.88-26.88v-43.52h-51.2v43.52c0 15.36-11.52 26.88-26.88 26.88s-26.88-11.52-26.88-26.88v-43.52h-51.2v43.52c0 15.36-11.52 26.88-26.88 26.88s-26.88-11.52-26.88-26.88v-43.52h-51.2v43.52c0 15.36-11.52 26.88-26.88 26.88s-26.88-11.52-26.88-26.88v-43.52h-7.68c-42.24 0-75.52-33.28-75.52-75.52v-491.52c0-42.24 33.28-75.52 75.52-75.52h384c42.24 0 75.52 33.28 75.52 75.52v491.52c0 40.96-34.56 75.52-75.52 75.52zM481.28 167.68c0-11.52-10.24-21.76-21.76-21.76h-384c-11.52 0-21.76 10.24-21.76 21.76v491.52c0 11.52 10.24 21.76 21.76 21.76h7.68v-43.52c0-15.36 11.52-26.88 26.88-26.88s26.88 11.52 26.88 26.88v43.52h51.2v-43.52c0-15.36 11.52-26.88 26.88-26.88s26.88 11.52 26.88 26.88v43.52h51.2v-43.52c0-15.36 11.52-26.88 26.88-26.88s26.88 11.52 26.88 26.88v43.52h51.2v-43.52c0-15.36 11.52-26.88 26.88-26.88s26.88 11.52 26.88 26.88v43.52h7.68c11.52 0 21.76-10.24 21.76-21.76v-491.52z" />
<glyph unicode="&#xe945;" glyph-name="options" data-tags="options" horiz-adv-x="494" d="M188.16 480h-161.28c-15.36 0-26.88 11.52-26.88 26.88v161.28c0 15.36 11.52 26.88 26.88 26.88h161.28c15.36 0 26.88-11.52 26.88-26.88v-161.28c0-14.080-12.8-26.88-26.88-26.88zM53.76 533.76h107.52v107.52h-107.52v-107.52zM467.2 480h-161.28c-15.36 0-26.88 11.52-26.88 26.88v161.28c0 15.36 11.52 26.88 26.88 26.88h161.28c15.36 0 26.88-11.52 26.88-26.88v-161.28c0-14.080-12.8-26.88-26.88-26.88zM332.8 533.76h107.52v107.52h-107.52c0 0 0-107.52 0-107.52zM188.16 200.96h-161.28c-15.36 0-26.88 11.52-26.88 26.88v161.28c0 15.36 11.52 26.88 26.88 26.88h161.28c15.36 0 26.88-11.52 26.88-26.88v-161.28c0-15.36-12.8-26.88-26.88-26.88zM53.76 254.72h107.52v107.52h-107.52v-107.52zM467.2 200.96h-161.28c-15.36 0-26.88 11.52-26.88 26.88v161.28c0 15.36 11.52 26.88 26.88 26.88h161.28c15.36 0 26.88-11.52 26.88-26.88v-161.28c0-15.36-12.8-26.88-26.88-26.88zM332.8 254.72h107.52v107.52h-107.52c0 0 0-107.52 0-107.52z" />
<glyph unicode="&#xe946;" glyph-name="paper-plane" data-tags="paper-plane" horiz-adv-x="527" d="M180.48 152.32c-3.84 0-7.68 1.28-11.52 2.56-8.96 5.12-15.36 14.080-15.36 24.32v139.52c0 6.4 2.56 12.8 6.4 17.92l192 211.2c10.24 11.52 26.88 11.52 38.4 1.28s11.52-26.88 1.28-38.4l-184.32-202.24v-75.52l107.52 80.64c7.68 5.12 17.92 6.4 25.6 3.84l67.84-26.88 57.6 377.6-384-213.76 61.44-35.84c12.8-7.68 16.64-24.32 8.96-37.12s-24.32-16.64-37.12-8.96l-102.4 60.16c-8.96 5.12-12.8 14.080-12.8 23.040 0 10.24 5.12 17.92 14.080 23.040l473.6 261.12c8.96 5.12 20.48 3.84 28.16-1.28 8.96-6.4 12.8-15.36 11.52-25.6l-71.68-464.64c-1.28-7.68-6.4-15.36-12.8-19.2s-15.36-5.12-23.040-1.28l-85.76 34.56-138.24-103.68c-3.84-3.84-8.96-6.4-15.36-6.4z" />
<glyph unicode="&#xe947;" glyph-name="paper" data-tags="paper" horiz-adv-x="503" d="M432.64 776.96h-236.8c-11.52 0-17.92-6.4-19.2-7.68l-168.96-168.96c-1.28-1.28-7.68-7.68-7.68-17.92v-390.4c0-39.68 32-71.68 71.68-71.68h359.68c39.68 0 71.68 32 71.68 71.68v513.28c1.28 39.68-30.72 71.68-70.4 71.68zM168.96 686.080v-57.6c0-10.24-7.68-17.92-17.92-17.92h-58.88l76.8 75.52zM450.56 190.72c0-10.24-8.96-17.92-17.92-17.92h-360.96c-10.24 0-17.92 8.96-17.92 17.92v363.52h97.28c39.68 0 71.68 32 71.68 71.68v97.28h208.64c10.24 0 17.92-7.68 17.92-17.92l1.28-514.56z" />
<glyph unicode="&#xe948;" glyph-name="paperclip" data-tags="paperclip" horiz-adv-x="631" d="M129.28 97.28c-33.28 0-66.56 12.8-92.16 38.4-51.2 49.92-51.2 133.12 0 184.32l354.56 353.28c30.72 30.72 81.92 30.72 112.64 0 15.36-15.36 23.040-34.56 23.040-56.32s-7.68-40.96-23.040-56.32l-281.6-279.040c-10.24-10.24-26.88-10.24-38.4 0-10.24 10.24-10.24 26.88 0 38.4l280.32 280.32c5.12 5.12 7.68 11.52 7.68 17.92s-2.56 12.8-7.68 17.92c-10.24 10.24-26.88 10.24-35.84 0l-353.28-354.56c-29.44-29.44-29.44-79.36 0-108.8s79.36-29.44 108.8 0l353.28 354.56c24.32 24.32 37.12 56.32 37.12 90.88s-12.8 66.56-37.12 90.88c-49.92 49.92-130.56 49.92-180.48 0l-280.32-281.6c-10.24-10.24-26.88-10.24-38.4 0-10.24 10.24-10.24 26.88 0 38.4l281.6 280.32c70.4 70.4 185.6 70.4 257.28 0 34.56-34.56 53.76-79.36 53.76-128s-19.2-94.72-53.76-128l-354.56-354.56c-25.6-25.6-57.6-38.4-93.44-38.4z" />
<glyph unicode="&#xe949;" glyph-name="pencil" data-tags="pencil" horiz-adv-x="617" d="M616.96 629.76c0 7.68-2.56 14.080-7.68 19.2l-99.84 99.84c-10.24 10.24-26.88 10.24-38.4 0l-75.52-75.52-362.24-363.52c-3.84-3.84-6.4-8.96-7.68-14.080l-25.6-125.44c-1.28-8.96 1.28-17.92 7.68-24.32 5.12-5.12 11.52-7.68 19.2-7.68 1.28 0 3.84 0 5.12 0l125.44 25.6c5.12 1.28 10.24 3.84 14.080 7.68l437.76 437.76c5.12 6.4 7.68 12.8 7.68 20.48zM138.24 216.32l-78.080-15.36 16.64 76.8 337.92 337.92 61.44-61.44-337.92-337.92zM514.56 591.36l-61.44 61.44 38.4 38.4 61.44-61.44-38.4-38.4z" />
<glyph unicode="&#xe94a;" glyph-name="percent" data-tags="percent" horiz-adv-x="466" d="M90.88 497.92c-49.92 0-90.88 40.96-90.88 90.88s40.96 90.88 90.88 90.88 90.88-40.96 90.88-90.88-40.96-90.88-90.88-90.88zM90.88 627.2c-20.48 0-37.12-16.64-37.12-37.12s16.64-37.12 37.12-37.12c20.48 0 37.12 16.64 37.12 37.12s-16.64 37.12-37.12 37.12zM373.76 215.040c-49.92 0-90.88 40.96-90.88 90.88s40.96 90.88 90.88 90.88 90.88-40.96 90.88-90.88-39.68-90.88-90.88-90.88zM373.76 344.32c-20.48 0-37.12-16.64-37.12-37.12s16.64-38.4 37.12-38.4c20.48 0 37.12 16.64 37.12 37.12s-15.36 38.4-37.12 38.4zM26.88 215.040c-6.4 0-14.080 2.56-19.2 7.68-10.24 10.24-10.24 26.88 0 38.4l412.16 412.16c10.24 10.24 26.88 10.24 38.4 0 10.24-10.24 10.24-26.88 0-38.4l-412.16-412.16c-5.12-5.12-12.8-7.68-19.2-7.68z" />
<glyph unicode="&#xe94b;" glyph-name="permille" data-tags="permille" horiz-adv-x="594" d="M90.88 497.92c49.92 0 90.88 40.96 90.88 90.88s-40.96 90.88-90.88 90.88-90.88-39.68-90.88-89.6 40.96-92.16 90.88-92.16zM90.88 627.2c20.48 0 37.12-16.64 37.12-37.12s-16.64-37.12-37.12-37.12-37.12 16.64-37.12 37.12c0 20.48 16.64 37.12 37.12 37.12zM503.040 398.080c-25.6 0-47.36-10.24-64-26.88-16.64 16.64-39.68 26.88-64 26.88-49.92 0-90.88-40.96-90.88-90.88s40.96-90.88 90.88-90.88c25.6 0 47.36 10.24 64 26.88 16.64-16.64 39.68-26.88 64-26.88 49.92 0 90.88 40.96 90.88 90.88s-40.96 90.88-90.88 90.88zM375.040 268.8c-20.48 0-37.12 16.64-37.12 37.12s16.64 37.12 37.12 37.12c20.48 0 37.12-16.64 37.12-37.12s-16.64-37.12-37.12-37.12zM503.040 268.8c-20.48 0-37.12 16.64-37.12 37.12s16.64 37.12 37.12 37.12 37.12-16.64 37.12-37.12-16.64-37.12-37.12-37.12zM458.24 673.28c-10.24 10.24-26.88 10.24-38.4 0l-412.16-412.16c-10.24-10.24-10.24-26.88 0-38.4 5.12-5.12 12.8-7.68 19.2-7.68s14.080 2.56 19.2 7.68l412.16 412.16c10.24 10.24 10.24 28.16 0 38.4z" />
<glyph unicode="&#xe94c;" glyph-name="phone" data-tags="phone" horiz-adv-x="611" d="M441.6 143.36c-99.84 0-207.36 87.040-280.32 158.72-62.72 61.44-163.84 180.48-161.28 286.72 1.28 44.8 20.48 81.92 56.32 112.64 40.96 34.56 72.96 51.2 101.12 51.2 39.68 0 61.44-30.72 75.52-51.2 12.8-19.2 44.8-66.56 57.6-90.88 20.48-38.4 10.24-72.96-29.44-103.68-2.56-1.28-2.56-2.56-3.84-3.84-1.28-11.52 26.88-39.68 39.68-51.2l12.8-12.8c12.8-12.8 38.4-39.68 51.2-39.68 1.28 0 3.84 2.56 3.84 3.84 20.48 26.88 42.24 39.68 66.56 39.68 15.36 0 28.16-5.12 37.12-10.24 24.32-12.8 71.68-44.8 90.88-57.6 17.92-12.8 46.080-32 51.2-65.28 3.84-30.72-11.52-65.28-49.92-111.36-33.28-37.12-72.96-55.040-119.040-55.040v0zM158.72 700.16c-7.68 0-26.88-5.12-66.56-38.4-24.32-20.48-37.12-44.8-38.4-74.24-2.56-64 49.92-153.6 143.36-247.040 90.88-90.88 179.2-143.36 243.2-143.36v0c30.72 0 57.6 12.8 79.36 38.4 35.84 42.24 39.68 61.44 38.4 69.12-1.28 8.96-10.24 16.64-28.16 28.16-14.080 10.24-62.72 42.24-85.76 55.040-3.84 2.56-7.68 3.84-11.52 3.84-6.4 0-15.36-6.4-24.32-19.2-15.36-20.48-33.28-24.32-46.080-24.32v0c-34.56 0-65.28 30.72-89.6 55.040l-11.52 11.52c-25.6 25.6-57.6 56.32-55.040 92.16 1.28 11.52 5.12 28.16 24.32 42.24 24.32 17.92 20.48 25.6 15.36 35.84-12.8 23.040-44.8 71.68-55.040 85.76-15.36 21.76-23.040 29.44-32 29.44z" />
<glyph unicode="&#xe94d;" glyph-name="plug" data-tags="plug" horiz-adv-x="564" d="M556.8 608c-10.24 10.24-26.88 10.24-37.12 0l-107.52-107.52-76.8 76.8 107.52 107.52c10.24 10.24 10.24 26.88 0 37.12s-26.88 10.24-37.12 0l-107.52-107.52-51.2 51.2c-10.24 10.24-28.16 10.24-37.12 0l-97.28-97.28c-38.4-38.4-60.16-90.88-60.16-145.92 0-46.080 15.36-89.6 42.24-125.44l-87.040-87.040c-10.24-10.24-10.24-26.88 0-37.12 5.12-3.84 11.52-6.4 19.2-6.4s14.080 2.56 19.2 7.68l87.040 87.040c35.84-28.16 79.36-42.24 125.44-42.24 55.040 0 106.24 21.76 145.92 60.16l97.28 97.28c5.12 5.12 7.68 11.52 7.68 19.2 0 6.4-2.56 14.080-7.68 19.2l-49.92 49.92 107.52 107.52c7.68 8.96 7.68 25.6-2.56 35.84zM366.080 316.16v0c-29.44-29.44-66.56-44.8-107.52-44.8s-79.36 15.36-107.52 44.8c-29.44 28.16-44.8 66.56-44.8 107.52s15.36 79.36 44.8 107.52l78.080 78.080 215.040-215.040-78.080-78.080z" />
<glyph unicode="&#xe94e;" glyph-name="plus" data-tags="plus" horiz-adv-x="573" d="M545.28 474.88h-232.96v231.68c0 15.36-11.52 26.88-26.88 26.88s-26.88-11.52-26.88-26.88v-232.96h-231.68c-15.36 1.28-26.88-10.24-26.88-25.6s11.52-26.88 26.88-26.88h232.96v-232.96c0-15.36 11.52-26.88 26.88-26.88s26.88 11.52 26.88 26.88v234.24h232.96c15.36 0 26.88 11.52 26.88 26.88s-14.080 25.6-28.16 25.6z" />
<glyph unicode="&#xe94f;" glyph-name="printer" data-tags="printer" horiz-adv-x="704" d="M642.56 503.040h-94.72v112.64c0 1.28 0 3.84 0 5.12s0 2.56-1.28 3.84v1.28c0 1.28-1.28 2.56-1.28 3.84 0 0 0 1.28-1.28 1.28-1.28 1.28-2.56 2.56-3.84 3.84l-126.72 126.72c-1.28 1.28-2.56 2.56-3.84 3.84 0 0-1.28 0-1.28 1.28-1.28 1.28-2.56 1.28-3.84 1.28h-1.28c-1.28 0-2.56 1.28-3.84 1.28s-3.84 0-5.12 0h-176.64c-33.28 0-60.16-26.88-60.16-60.16v-206.080h-96c-33.28 0-61.44-29.44-61.44-66.56v-243.2c0-37.12 28.16-66.56 61.44-66.56h581.12c34.56 0 61.44 29.44 61.44 66.56v243.2c0 37.12-28.16 66.56-61.44 66.56zM421.12 678.4l34.56-34.56h-28.16c-3.84 0-7.68 2.56-7.68 7.68l1.28 26.88zM209.92 709.12c0 3.84 2.56 7.68 7.68 7.68h149.76v-66.56c0-33.28 26.88-60.16 60.16-60.16h66.56v-85.76h-284.16v204.8zM209.92 449.28h284.16v-125.44c0-3.84-2.56-7.68-7.68-7.68h-268.8c-3.84 0-7.68 2.56-7.68 7.68 0 0 0 125.44 0 125.44zM650.24 193.28c0-7.68-5.12-12.8-7.68-12.8h-581.12c-3.84 0-7.68 5.12-7.68 12.8v243.2c0 7.68 5.12 12.8 7.68 12.8h94.72v-125.44c0-33.28 26.88-60.16 60.16-60.16h268.8c33.28 0 60.16 26.88 60.16 60.16v125.44h94.72c3.84 0 7.68-5.12 7.68-12.8v-243.2h2.56z" />
<glyph unicode="&#xe950;" glyph-name="question" data-tags="question" horiz-adv-x="284" d="M116.48 286.72c-10.24 0-20.48 6.4-24.32 15.36-17.92 40.96-17.92 81.92 0 128 12.8 30.72 40.96 53.76 69.12 76.8 53.76 42.24 84.48 71.68 57.6 130.56-20.48 42.24-71.68 53.76-108.8 43.52-19.2-5.12-62.72-24.32-56.32-87.040 1.28-15.36-8.96-28.16-23.040-29.44-15.36-1.28-28.16 8.96-29.44 23.040-7.68 69.12 29.44 126.72 94.72 144.64 58.88 16.64 139.52-2.56 172.8-72.96 46.080-99.84-21.76-154.88-71.68-194.56-23.040-19.2-46.080-37.12-52.48-53.76-12.8-32-12.8-58.88-1.28-85.76 6.4-14.080 0-29.44-12.8-35.84-6.4-2.56-10.24-2.56-14.080-2.56zM180.48 198.4c0-21.915-17.765-39.68-39.68-39.68s-39.68 17.765-39.68 39.68c0 21.915 17.765 39.68 39.68 39.68s39.68-17.765 39.68-39.68z" />
<glyph unicode="&#xe951;" glyph-name="quote-left" data-tags="quote-left" horiz-adv-x="623" d="M142.080 230.4c-69.12 0-143.36 61.44-143.36 176.64 0 122.88 58.88 213.76 166.4 257.28 14.080 5.12 29.44-1.28 34.56-15.36s-1.28-29.44-15.36-34.56c-108.8-44.8-131.84-136.96-131.84-207.36 0-80.64 44.8-122.88 89.6-122.88 40.96 0 89.6 19.2 89.6 72.96 0 21.76-11.52 42.24-30.72 55.040-15.36 8.96-33.28 11.52-46.080 3.84-12.8-6.4-29.44-1.28-35.84 11.52s-1.28 29.44 11.52 35.84c30.72 15.36 67.84 12.8 98.56-6.4 34.56-21.76 56.32-58.88 56.32-99.84 0-74.24-60.16-126.72-143.36-126.72zM478.72 230.4c-69.12 0-143.36 61.44-143.36 176.64 0 122.88 58.88 213.76 166.4 257.28 14.080 5.12 29.44-1.28 34.56-15.36s-1.28-29.44-15.36-34.56c-108.8-43.52-131.84-136.96-131.84-207.36 0-80.64 44.8-122.88 89.6-122.88 40.96 0 89.6 19.2 89.6 72.96 0 21.76-11.52 42.24-30.72 55.040-15.36 8.96-33.28 11.52-46.080 3.84-12.8-6.4-29.44-1.28-35.84 11.52s-1.28 29.44 11.52 35.84c30.72 15.36 67.84 12.8 98.56-6.4 34.56-21.76 56.32-58.88 56.32-99.84-1.28-74.24-60.16-126.72-143.36-126.72z" />
<glyph unicode="&#xe952;" glyph-name="quote-right" data-tags="quote-right" horiz-adv-x="625" d="M110.080 230.4c-10.24 0-20.48 6.4-24.32 16.64-5.12 14.080 1.28 29.44 15.36 34.56 108.8 43.52 131.84 136.96 131.84 207.36 0 80.64-44.8 122.88-89.6 122.88-40.96 0-89.6-19.2-89.6-72.96 0-21.76 11.52-42.24 30.72-55.040 15.36-8.96 33.28-11.52 46.080-3.84 12.8 6.4 29.44 1.28 35.84-11.52s1.28-29.44-11.52-35.84c-30.72-15.36-67.84-12.8-98.56 6.4-35.84 21.76-56.32 58.88-56.32 99.84 0 74.24 58.88 126.72 143.36 126.72 69.12 0 143.36-61.44 143.36-176.64 0-122.88-58.88-213.76-166.4-257.28-2.56 0-6.4-1.28-10.24-1.28zM448 230.4c-10.24 0-20.48 6.4-24.32 16.64-5.12 14.080 1.28 29.44 15.36 34.56 108.8 43.52 131.84 136.96 131.84 207.36 0 80.64-44.8 122.88-89.6 122.88-40.96 0-89.6-19.2-89.6-72.96 0-21.76 11.52-42.24 30.72-55.040 15.36-8.96 33.28-11.52 46.080-3.84 12.8 6.4 29.44 1.28 35.84-11.52s1.28-29.44-11.52-35.84c-30.72-15.36-67.84-12.8-98.56 6.4-34.56 21.76-56.32 58.88-56.32 99.84 0 74.24 58.88 126.72 143.36 126.72 69.12 0 143.36-61.44 143.36-176.64 0-122.88-58.88-213.76-166.4-257.28-3.84 0-7.68-1.28-10.24-1.28z" />
<glyph unicode="&#xe953;" glyph-name="quotes" data-tags="quotes" horiz-adv-x="623" d="M144.64 230.4c-69.12 0-143.36 61.44-143.36 176.64 0 122.88 58.88 213.76 166.4 257.28 14.080 5.12 29.44-1.28 34.56-15.36s-1.28-29.44-15.36-34.56c-108.8-44.8-131.84-136.96-131.84-207.36 0-80.64 44.8-122.88 89.6-122.88 40.96 0 89.6 19.2 89.6 72.96 0 21.76-11.52 42.24-30.72 55.040-15.36 8.96-33.28 11.52-46.080 3.84-12.8-6.4-29.44-1.28-35.84 11.52s-1.28 29.44 11.52 35.84c30.72 15.36 67.84 12.8 98.56-6.4 34.56-21.76 56.32-58.88 56.32-99.84-1.28-74.24-60.16-126.72-143.36-126.72zM446.72 230.4c-10.24 0-20.48 6.4-24.32 16.64-5.12 14.080 1.28 29.44 15.36 34.56 108.8 43.52 131.84 136.96 131.84 207.36 0 80.64-44.8 122.88-89.6 122.88-40.96 0-89.6-19.2-89.6-72.96 0-21.76 11.52-42.24 30.72-55.040 15.36-8.96 33.28-11.52 46.080-3.84 12.8 6.4 29.44 1.28 35.84-11.52s1.28-29.44-11.52-35.84c-30.72-15.36-67.84-12.8-98.56 6.4-34.56 21.76-56.32 58.88-56.32 99.84 0 74.24 58.88 126.72 143.36 126.72 69.12 0 143.36-61.44 143.36-176.64 0-122.88-58.88-213.76-166.4-257.28-3.84 0-7.68-1.28-10.24-1.28z" />
<glyph unicode="&#xe954;" glyph-name="registered" data-tags="registered" horiz-adv-x="623" d="M312.32 760.32c-172.8 0-312.32-140.8-312.32-312.32s139.52-312.32 312.32-312.32c171.52 0 311.040 140.8 311.040 312.32s-138.24 312.32-311.040 312.32zM312.32 189.44c-143.36 0-258.56 115.2-258.56 258.56s116.48 258.56 258.56 258.56 258.56-115.2 258.56-258.56-116.48-258.56-258.56-258.56zM362.24 384c8.96 5.12 16.64 11.52 24.32 19.2 21.76 21.76 33.28 52.48 33.28 89.6 0 43.52-21.76 79.36-57.6 98.56-32 16.64-71.68 16.64-126.72 16.64-15.36 0-26.88-11.52-26.88-26.88v-271.36c0-15.36 11.52-26.88 26.88-26.88s26.88 11.52 26.88 26.88v53.76c12.8 0 26.88 1.28 40.96 2.56l72.96-72.96c5.12-5.12 12.8-7.68 19.2-7.68s12.8 2.56 19.2 7.68c10.24 11.52 10.24 28.16 0 38.4l-52.48 52.48zM261.12 554.24c33.28 0 58.88-2.56 75.52-10.24 17.92-8.96 28.16-26.88 28.16-49.92 0-24.32-5.12-40.96-16.64-52.48-10.24-10.24-24.32-15.36-39.68-19.2-2.56 0-3.84 0-6.4-1.28-14.080-2.56-28.16-3.84-40.96-3.84 1.28 0 1.28 136.96 0 136.96z" />
<glyph unicode="&#xe955;" glyph-name="rss" data-tags="rss" horiz-adv-x="556" d="M93.44 170.24c-51.2 0-93.44 42.24-93.44 93.44s42.24 93.44 93.44 93.44 93.44-42.24 93.44-93.44c1.28-51.2-40.96-93.44-93.44-93.44zM93.44 304.64c-21.76 0-39.68-17.92-39.68-39.68s17.92-39.68 39.68-39.68c21.76 0 39.68 17.92 39.68 39.68 1.28 21.76-16.64 39.68-39.68 39.68zM360.96 170.24c-15.36 0-26.88 11.52-26.88 26.88 0 168.96-138.24 307.2-307.2 307.2-15.36 0-26.88 11.52-26.88 26.88s11.52 26.88 26.88 26.88c198.4 0 360.96-161.28 360.96-360.96 0-15.36-11.52-26.88-26.88-26.88zM528.64 170.24c-15.36 0-26.88 11.52-26.88 26.88 0 262.4-213.76 474.88-474.88 474.88-15.36 0-26.88 11.52-26.88 26.88s11.52 26.88 26.88 26.88c291.84 0 528.64-236.8 528.64-528.64 0-15.36-11.52-26.88-26.88-26.88z" />
<glyph unicode="&#xe956;" glyph-name="search" data-tags="search" horiz-adv-x="522" d="M514.56 232.96l-133.12 133.12c65.28 83.2 58.88 204.8-17.92 280.32-39.68 39.68-93.44 62.72-151.040 62.72s-110.080-21.76-149.76-62.72c-40.96-39.68-62.72-93.44-62.72-149.76s21.76-110.080 62.72-151.040c39.68-39.68 93.44-62.72 151.040-62.72 47.36 0 93.44 15.36 130.56 44.8l133.12-133.12c5.12-5.12 11.52-7.68 19.2-7.68s14.080 2.56 19.2 7.68c8.96 10.24 8.96 28.16-1.28 38.4zM99.84 384c-29.44 29.44-46.080 70.4-46.080 112.64s16.64 81.92 46.080 112.64c30.72 29.44 70.4 46.080 112.64 46.080s81.92-16.64 112.64-46.080c61.44-62.72 61.44-162.56 0-225.28-29.44-29.44-70.4-46.080-112.64-46.080-42.24-1.28-81.92 15.36-112.64 46.080z" />
<glyph unicode="&#xe957;" glyph-name="settings" data-tags="settings" horiz-adv-x="710" d="M354.56 93.44c-38.4 0-53.76 28.16-64 47.36-8.96 17.92-17.92 34.56-43.52 46.080-10.24 3.84-19.2 6.4-28.16 6.4-12.8 0-23.040-3.84-35.84-7.68-11.52-2.56-23.040-6.4-35.84-6.4-16.64 0-30.72 6.4-43.52 19.2-26.88 26.88-17.92 57.6-11.52 79.36 6.4 19.2 11.52 37.12 1.28 62.72s-28.16 34.56-46.080 43.52c-20.48 10.24-47.36 25.6-47.36 64s28.16 53.76 47.36 64c17.92 8.96 34.56 17.92 46.080 43.52 10.24 25.6 5.12 43.52-1.28 62.72-6.4 21.76-16.64 51.2 11.52 79.36 12.8 12.8 26.88 19.2 43.52 19.2 12.8 0 24.32-3.84 35.84-7.68s23.040-7.68 35.84-7.68v0c8.96 0 17.92 2.56 28.16 6.4 25.6 10.24 34.56 28.16 43.52 46.080 10.24 20.48 25.6 47.36 64 47.36s53.76-28.16 64-47.36c8.96-17.92 17.92-34.56 43.52-46.080 10.24-3.84 19.2-6.4 28.16-6.4 12.8 0 23.040 3.84 35.84 7.68 11.52 3.84 23.040 7.68 35.84 7.68 16.64 0 30.72-6.4 43.52-19.2 26.88-26.88 17.92-57.6 11.52-79.36-6.4-19.2-11.52-37.12-1.28-62.72s28.16-34.56 46.080-43.52c20.48-10.24 48.64-25.6 48.64-64s-28.16-53.76-47.36-64c-17.92-8.96-34.56-17.92-46.080-43.52-10.24-25.6-5.12-43.52 1.28-62.72 6.4-21.76 16.64-51.2-11.52-79.36-12.8-12.8-26.88-17.92-43.52-17.92-12.8 0-24.32 3.84-35.84 7.68s-23.040 7.68-35.84 7.68c-8.96 0-17.92-2.56-28.16-6.4-25.6-10.24-34.56-28.16-43.52-46.080-12.8-21.76-26.88-49.92-65.28-49.92zM217.6 247.040c16.64 0 32-3.84 48.64-10.24 43.52-17.92 60.16-49.92 70.4-70.4 10.24-19.2 11.52-19.2 16.64-19.2s6.4 0 16.64 19.2c10.24 20.48 26.88 52.48 70.4 70.4 16.64 6.4 32 10.24 48.64 10.24 20.48 0 37.12-5.12 51.2-10.24 7.68-2.56 15.36-5.12 19.2-5.12 1.28 0 2.56 0 5.12 2.56 3.84 3.84 5.12 5.12-2.56 25.6-6.4 21.76-17.92 56.32 0 99.84s49.92 60.16 70.4 70.4c19.2 10.24 19.2 11.52 19.2 16.64s0 6.4-19.2 16.64c-20.48 10.24-52.48 26.88-70.4 70.4s-7.68 78.080 0 99.84c6.4 20.48 5.12 21.76 2.56 25.6-2.56 2.56-3.84 2.56-5.12 2.56-5.12 0-11.52-2.56-19.2-5.12-14.080-3.84-30.72-10.24-51.2-10.24-16.64 0-32 3.84-48.64 10.24-43.52 17.92-60.16 49.92-70.4 70.4-10.24 19.2-11.52 19.2-16.64 19.2s-6.4 0-16.64-19.2c-10.24-20.48-26.88-52.48-70.4-70.4-16.64-6.4-32-10.24-48.64-10.24v0c-20.48 0-37.12 5.12-51.2 10.24-7.68 2.56-15.36 5.12-19.2 5.12-1.28 0-2.56 0-5.12-2.56-3.84-3.84-5.12-5.12 2.56-25.6 6.4-21.76 17.92-56.32 0-99.84-16.64-43.52-48.64-60.16-69.12-70.4-19.2-10.24-19.2-11.52-19.2-16.64s0-6.4 19.2-16.64c20.48-10.24 52.48-26.88 70.4-70.4s7.68-78.080 0-99.84c-6.4-20.48-5.12-21.76-2.56-25.6 2.56-2.56 3.84-2.56 5.12-2.56 5.12 0 11.52 2.56 19.2 5.12 11.52 5.12 30.72 10.24 49.92 10.24zM354.56 281.6c-92.16 0-167.68 75.52-167.68 167.68s75.52 167.68 167.68 167.68c93.44-1.28 167.68-76.8 167.68-168.96s-74.24-166.4-167.68-166.4zM354.56 561.92c-62.72 0-113.92-49.92-113.92-113.92s51.2-113.92 113.92-113.92 113.92 51.2 113.92 113.92-52.48 113.92-113.92 113.92z" />
<glyph unicode="&#xe958;" glyph-name="share" data-tags="share" horiz-adv-x="494" d="M414.72 382.72c-23.040 0-43.52-10.24-57.6-25.6l-198.4 84.48c0 1.28 0 3.84 0 5.12s0 3.84 0 5.12l198.4 85.76c14.080-15.36 34.56-25.6 57.6-25.6 43.52 0 79.36 35.84 79.36 79.36s-35.84 79.36-79.36 79.36c-43.52 0-79.36-35.84-79.36-79.36 0-1.28 0-3.84 0-5.12l-198.4-84.48c-14.080 15.36-34.56 25.6-57.6 25.6-43.52 0-79.36-35.84-79.36-79.36s35.84-79.36 79.36-79.36c23.040 0 43.52 10.24 57.6 25.6l198.4-84.48c0-1.28 0-3.84 0-5.12 0-43.52 35.84-79.36 79.36-79.36s79.36 35.84 79.36 79.36c0 42.24-35.84 78.080-79.36 78.080zM414.72 618.24c14.080 0 25.6-11.52 25.6-25.6s-11.52-25.6-25.6-25.6-25.6 11.52-25.6 25.6 11.52 25.6 25.6 25.6zM79.36 422.4c-14.080 0-25.6 11.52-25.6 25.6s11.52 25.6 25.6 25.6 25.6-11.52 25.6-25.6-11.52-25.6-25.6-25.6zM414.72 277.76c-14.080 0-25.6 11.52-25.6 25.6s11.52 25.6 25.6 25.6 25.6-11.52 25.6-25.6c0-14.080-11.52-25.6-25.6-25.6z" />
<glyph unicode="&#xe959;" glyph-name="signal" data-tags="signal" horiz-adv-x="538" d="M510.72 175.36c-15.36 0-26.88 11.52-26.88 26.88v491.52c0 15.36 11.52 26.88 26.88 26.88s26.88-11.52 26.88-26.88v-492.8c1.28-14.080-11.52-25.6-26.88-25.6zM349.44 175.36c-15.36 0-26.88 11.52-26.88 26.88v390.4c0 15.36 11.52 26.88 26.88 26.88s26.88-11.52 26.88-26.88v-390.4c1.28-15.36-11.52-26.88-26.88-26.88zM188.16 175.36c-15.36 0-26.88 11.52-26.88 26.88v256c0 15.36 11.52 26.88 26.88 26.88s26.88-11.52 26.88-26.88v-256c0-15.36-12.8-26.88-26.88-26.88zM26.88 175.36c-15.36 0-26.88 11.52-26.88 26.88v168.96c0 15.36 11.52 26.88 26.88 26.88s26.88-11.52 26.88-26.88v-168.96c0-15.36-12.8-26.88-26.88-26.88z" />
<glyph unicode="&#xe95a;" glyph-name="star-alt" data-tags="star-alt" horiz-adv-x="732" d="M176.64 97.28c-12.8 0-25.6 3.84-34.56 10.24-53.76 38.4-8.96 170.24 21.76 243.2-67.84 42.24-181.76 122.88-161.28 184.32 12.8 38.4 66.56 56.32 168.96 56.32 26.88 0 52.48-1.28 69.12-2.56 17.92 78.080 60.16 209.92 125.44 209.92s107.52-133.12 125.44-209.92c17.92 1.28 42.24 2.56 69.12 2.56 102.4 0 156.16-17.92 168.96-56.32 20.48-62.72-93.44-143.36-161.28-184.32 30.72-72.96 75.52-204.8 21.76-243.2-8.96-6.4-21.76-10.24-34.56-10.24-57.6 0-148.48 71.68-190.72 106.24-39.68-34.56-130.56-106.24-188.16-106.24v0zM366.080 266.24c6.4 0 12.8-2.56 17.92-6.4 49.92-44.8 136.96-108.8 172.8-108.8 2.56 0 3.84 0 3.84 0 11.52 14.080-6.4 103.68-48.64 199.68-5.12 12.8-1.28 26.88 11.52 34.56 90.88 52.48 158.72 115.2 157.44 134.4v0c0 0-15.36 19.2-117.76 19.2-46.080 0-87.040-3.84-88.32-3.84-14.080-1.28-25.6 7.68-29.44 20.48-21.76 102.4-60.16 186.88-78.080 190.72-19.2-2.56-57.6-87.040-79.36-189.44-2.56-12.8-15.36-23.040-29.44-20.48 0 0-40.96 3.84-88.32 3.84-102.4-1.28-116.48-20.48-116.48-20.48-1.28-17.92 66.56-80.64 157.44-133.12 11.52-6.4 16.64-21.76 11.52-34.56-42.24-97.28-61.44-188.16-48.64-200.96 0 0 1.28 0 2.56 0 35.84 0 121.6 64 172.8 108.8 3.84 5.12 10.24 6.4 16.64 6.4z" />
<glyph unicode="&#xe95b;" glyph-name="star-half" data-tags="star-half" horiz-adv-x="712" d="M152.32 108.8c-5.12 0-11.52 1.28-15.36 5.12-7.68 6.4-12.8 16.64-10.24 25.6l35.84 212.48-154.88 151.040c-7.68 7.68-10.24 17.92-6.4 26.88 2.56 10.24 11.52 16.64 21.76 17.92l213.76 30.72 96 193.28c6.4 12.8 23.040 19.2 35.84 12.8s19.2-23.040 12.8-35.84l-101.12-206.080c-3.84-7.68-11.52-12.8-20.48-14.080l-174.080-25.6 125.44-122.88c6.4-6.4 8.96-15.36 7.68-24.32l-29.44-172.8 154.88 81.92c12.8 6.4 29.44 1.28 35.84-11.52s1.28-29.44-11.52-35.84l-203.52-106.24c-3.84-1.28-8.96-2.56-12.8-2.56z" />
<glyph unicode="&#xe95c;" glyph-name="star" data-tags="star" horiz-adv-x="712" d="M559.36 108.8c-3.84 0-8.96 1.28-12.8 2.56l-190.72 99.84-190.72-99.84c-8.96-5.12-20.48-3.84-28.16 2.56s-12.8 16.64-10.24 25.6l35.84 212.48-154.88 151.040c-7.68 7.68-10.24 17.92-6.4 26.88 2.56 10.24 11.52 16.64 21.76 17.92l213.76 30.72 96 193.28c5.12 8.96 14.080 15.36 24.32 15.36s19.2-6.4 24.32-15.36l96-193.28 213.76-30.72c10.24-1.28 17.92-8.96 21.76-17.92 2.56-10.24 0-20.48-6.4-26.88l-157.44-151.040 35.84-212.48c1.28-10.24-2.56-20.48-10.24-25.6-5.12-3.84-10.24-5.12-15.36-5.12zM84.48 503.040l125.44-122.88c6.4-6.4 8.96-15.36 7.68-24.32l-29.44-172.8 154.88 81.92c7.68 3.84 16.64 3.84 24.32 0l154.88-81.92-29.44 172.8c-1.28 8.96 1.28 17.92 7.68 24.32l125.44 122.88-174.080 25.6c-8.96 1.28-16.64 6.4-20.48 14.080l-78.080 157.44-78.080-157.44c-3.84-7.68-11.52-12.8-20.48-14.080l-170.24-25.6z" />
<glyph unicode="&#xe95d;" glyph-name="suitcase" data-tags="suitcase" horiz-adv-x="654" d="M538.88 616.96h-70.4v64c0 47.36-38.4 87.040-87.040 87.040h-110.080c-47.36 0-87.040-38.4-87.040-87.040v-64h-69.12c-64 0-115.2-51.2-115.2-115.2v-258.56c0-64 51.2-115.2 115.2-115.2h423.68c64 0 115.2 51.2 115.2 115.2v258.56c0 64-51.2 115.2-115.2 115.2zM238.080 680.96c0 19.2 15.36 33.28 33.28 33.28h110.080c19.2 0 33.28-15.36 33.28-33.28v-64h-176.64v64zM601.6 243.2c0-34.56-28.16-61.44-61.44-61.44h-424.96c-34.56 0-61.44 28.16-61.44 61.44v258.56c0 34.56 28.16 61.44 61.44 61.44h423.68c34.56 0 61.44-28.16 61.44-61.44v-258.56z" />
<glyph unicode="&#xe95e;" glyph-name="tag" data-tags="tag" horiz-adv-x="535" d="M305.92 181.76c-14.080 0-26.88 5.12-37.12 15.36l-234.24 234.24c-5.12 5.12-15.36 15.36-28.16 130.56-14.080 121.6-2.56 133.12 6.4 140.8 10.24 10.24 24.32 12.8 53.76 12.8 35.84 0 197.12-14.080 218.88-35.84l234.24-234.24c20.48-20.48 20.48-53.76 0-74.24l-176.64-175.36c-10.24-7.68-23.040-14.080-37.12-14.080zM75.52 464.64l230.4-230.4 174.080 175.36-230.4 230.4c-23.040 7.68-128 23.040-184.32 23.040-5.12 0-8.96 0-11.52 0-2.56-42.24 14.080-170.24 21.76-198.4zM139.52 501.76c-20.48 0-39.68 7.68-53.76 21.76-29.44 29.44-29.44 76.8 0 106.24 14.080 14.080 33.28 21.76 53.76 21.76s39.68-7.68 53.76-21.76c14.080-14.080 21.76-33.28 21.76-53.76s-7.68-39.68-21.76-53.76c-15.36-12.8-34.56-20.48-53.76-20.48zM139.52 599.040c-6.4 0-11.52-2.56-15.36-6.4-8.96-8.96-8.96-21.76 0-30.72 7.68-7.68 23.040-7.68 30.72 0 3.84 3.84 6.4 8.96 6.4 15.36s-2.56 11.52-6.4 15.36c-5.12 3.84-10.24 6.4-15.36 6.4z" />
<glyph unicode="&#xe95f;" glyph-name="thumbs-down" data-tags="thumbs-down" horiz-adv-x="535" d="M189.44 152.32c-20.48 0-43.52 6.4-70.4 20.48-8.96 5.12-14.080 14.080-14.080 24.32v478.72c0 11.52 7.68 23.040 19.2 25.6 6.4 1.28 153.6 42.24 261.12 42.24 43.52 0 75.52-6.4 96-19.2 28.16-17.92 46.080-48.64 51.2-93.44 11.52-78.080-16.64-189.44-46.080-222.72-25.6-28.16-75.52-33.28-122.88-38.4-23.040-2.56-55.040-6.4-64-11.52s-14.080-44.8-16.64-67.84c-7.68-58.88-19.2-138.24-93.44-138.24zM157.44 213.76c15.36-6.4 25.6-7.68 32-7.68 23.040 0 32 28.16 39.68 90.88 6.4 43.52 11.52 85.76 39.68 104.96 19.2 12.8 51.2 16.64 88.32 20.48 30.72 3.84 78.080 8.96 89.6 21.76 15.36 16.64 43.52 107.52 33.28 179.2-2.56 19.2-10.24 44.8-26.88 55.040-7.68 3.84-25.6 11.52-67.84 11.52-78.080 0-184.32-24.32-227.84-34.56 0 0 0-441.6 0-441.6zM26.88 363.52c-15.36 0-26.88 11.52-26.88 26.88v285.44c0 15.36 11.52 26.88 26.88 26.88s26.88-11.52 26.88-26.88v-286.72c0-14.080-11.52-25.6-26.88-25.6z" />
<glyph unicode="&#xe960;" glyph-name="thumbs-up" data-tags="thumbs-up" horiz-adv-x="535" d="M385.28 152.32v0c-107.52 0-254.72 39.68-261.12 42.24-11.52 2.56-19.2 14.080-19.2 25.6v478.72c0 10.24 5.12 19.2 14.080 24.32 26.88 14.080 49.92 20.48 70.4 20.48 74.24 0 85.76-79.36 93.44-136.96 2.56-23.040 7.68-61.44 16.64-67.84s40.96-8.96 64-11.52c48.64-5.12 98.56-10.24 122.88-38.4 29.44-33.28 57.6-144.64 46.080-222.72-6.4-44.8-24.32-75.52-51.2-93.44-21.76-14.080-53.76-20.48-96-20.48zM157.44 240.64c43.52-10.24 148.48-34.56 227.84-34.56 42.24 0 61.44 7.68 67.84 11.52 16.64 10.24 24.32 35.84 26.88 55.040 10.24 71.68-17.92 162.56-33.28 179.2-11.52 12.8-58.88 17.92-89.6 21.76-37.12 3.84-67.84 7.68-88.32 20.48-28.16 19.2-34.56 61.44-39.68 104.96-8.96 62.72-16.64 90.88-39.68 90.88-6.4 0-16.64-1.28-32-7.68 0 0 0-441.6 0-441.6zM26.88 193.28c-15.36 0-26.88 11.52-26.88 26.88v285.44c0 15.36 11.52 26.88 26.88 26.88s26.88-11.52 26.88-26.88v-286.72c0-14.080-11.52-25.6-26.88-25.6z" />
<glyph unicode="&#xe961;" glyph-name="trademark" data-tags="trademark" horiz-adv-x="320" d="M99.84 515.84h-72.96c-15.36 0-26.88-11.52-26.88-26.88s11.52-26.88 26.88-26.88h8.96v-55.040c0-15.36 11.52-26.88 26.88-26.88s26.88 11.52 26.88 26.88v55.040h10.24c15.36 0 26.88 11.52 26.88 26.88s-12.8 26.88-26.88 26.88zM303.36 513.28c-8.96 5.12-19.2 3.84-28.16-2.56l-40.96-29.44-40.96 29.44c-7.68 6.4-19.2 6.4-28.16 2.56-8.96-5.12-14.080-14.080-14.080-24.32v-81.92c0-15.36 11.52-26.88 26.88-26.88s26.88 11.52 26.88 26.88v29.44l15.36-10.24c8.96-6.4 21.76-6.4 30.72 0l15.36 10.24v-29.44c0-15.36 11.52-26.88 26.88-26.88s26.88 11.52 26.88 26.88v81.92c-2.56 10.24-7.68 19.2-16.64 24.32z" />
<glyph unicode="&#xe962;" glyph-name="trash" data-tags="trash" horiz-adv-x="543" d="M514.56 641.28h-136.96v26.88c0 46.080-35.84 84.48-79.36 84.48h-55.040c-43.52 0-79.36-38.4-79.36-84.48v-26.88h-136.96c-15.36 0-26.88-12.8-26.88-26.88 0-15.36 11.52-26.88 26.88-26.88h26.88v-357.12c0-47.36 38.4-87.040 87.040-87.040h261.12c47.36 0 87.040 38.4 87.040 87.040v357.12h26.88c15.36 0 26.88 11.52 26.88 26.88-1.28 14.080-14.080 26.88-28.16 26.88zM217.6 668.16c0 16.64 11.52 30.72 25.6 30.72h55.040c14.080 0 25.6-14.080 25.6-30.72v-26.88h-106.24v26.88zM433.92 230.4c0-17.92-15.36-33.28-33.28-33.28h-261.12c-17.92 0-33.28 15.36-33.28 33.28v357.12h57.6v-263.68c0-15.36 11.52-26.88 26.88-26.88s26.88 11.52 26.88 26.88v263.68h104.96v-263.68c0-15.36 11.52-26.88 26.88-26.88s26.88 11.52 26.88 26.88v263.68h57.6c0 0 0-357.12 0-357.12z" />
<glyph unicode="&#xe963;" glyph-name="trophy" data-tags="trophy" horiz-adv-x="668" d="M463.36 413.44c2.56 0 3.84 0 6.4 1.28 7.68 2.56 197.12 49.92 198.4 195.84 0 28.16-19.2 66.56-58.88 81.92-19.2 7.68-53.76 14.080-98.56-10.24l1.28 12.8c1.28 7.68-1.28 15.36-6.4 20.48s-12.8 8.96-20.48 8.96h-302.080c-7.68 0-15.36-3.84-20.48-8.96s-7.68-12.8-6.4-20.48l1.28-12.8c-44.8 24.32-79.36 17.92-98.56 10.24-38.4-16.64-58.88-53.76-58.88-81.92 1.28-145.92 190.72-194.56 198.4-195.84 2.56 0 3.84-1.28 6.4-1.28 23.040-33.28 60.16-57.6 102.4-65.28v-124.16h-92.16c-15.36 0-26.88-11.52-26.88-26.88s11.52-26.88 26.88-26.88h238.080c15.36 0 26.88 11.52 26.88 26.88s-11.52 26.88-26.88 26.88h-92.16v124.16c42.24 7.68 79.36 33.28 102.4 65.28zM588.8 643.84c16.64-6.4 25.6-23.040 25.6-32 0-74.24-79.36-115.2-125.44-133.12 1.28 7.68 2.56 16.64 2.56 24.32l11.52 108.8c33.28 30.72 62.72 40.96 85.76 32zM55.040 611.84c0 8.96 8.96 25.6 25.6 32 23.040 8.96 52.48-2.56 85.76-32l11.52-108.8c0-8.96 1.28-16.64 2.56-24.32-46.080 17.92-125.44 58.88-125.44 133.12zM231.68 503.040c0 1.28 0 2.56 0 2.56l-17.92 165.12h243.2l-17.92-165.12c0-1.28 0-2.56 0-2.56 0-57.6-46.080-103.68-103.68-103.68s-103.68 48.64-103.68 103.68z" />
<glyph unicode="&#xe964;" glyph-name="turn-off" data-tags="turn-off" horiz-adv-x="517" d="M258.56 145.92c-143.36 0-258.56 115.2-258.56 258.56 0 103.68 61.44 197.12 156.16 236.8 14.080 6.4 29.44 0 35.84-14.080s0-29.44-14.080-35.84c-75.52-32-124.16-106.24-124.16-186.88 0-112.64 92.16-204.8 204.8-204.8s204.8 92.16 204.8 204.8c0 81.92-48.64 156.16-124.16 188.16-14.080 6.4-20.48 21.76-14.080 35.84s21.76 20.48 35.84 14.080c94.72-40.96 156.16-134.4 156.16-236.8-1.28-144.64-116.48-259.84-258.56-259.84zM258.56 473.6c-15.36 0-26.88 11.52-26.88 26.88v222.72c0 15.36 11.52 26.88 26.88 26.88s26.88-11.52 26.88-26.88v-224c0-14.080-12.8-25.6-26.88-25.6z" />
<glyph unicode="&#xe965;" glyph-name="university" data-tags="university" horiz-adv-x="710" d="M26.88 545.28h656.64c15.36 0 26.88 11.52 26.88 26.88 0 11.52-6.4 20.48-16.64 24.32l-326.4 166.4c-7.68 3.84-16.64 3.84-24.32 0l-327.68-166.4c-11.52-5.12-16.64-17.92-14.080-30.72 3.84-11.52 12.8-20.48 25.6-20.48zM355.84 707.84l215.040-108.8h-430.080l215.040 108.8zM683.52 184.32h-52.48v299.52c0 15.36-11.52 26.88-26.88 26.88s-26.88-11.52-26.88-26.88v-299.52h-112.64v299.52c0 15.36-11.52 26.88-26.88 26.88-14.080 0-26.88-11.52-26.88-26.88v-299.52h-112.64v299.52c0 15.36-11.52 26.88-26.88 26.88s-26.88-11.52-26.88-26.88v-299.52h-111.36v299.52c0 15.36-11.52 26.88-26.88 26.88s-25.6-11.52-25.6-26.88v-299.52h-52.48c-15.36 0-26.88-11.52-26.88-26.88s11.52-26.88 26.88-26.88h656.64c15.36 0 26.88 11.52 26.88 26.88s-12.8 26.88-28.16 26.88z" />
<glyph unicode="&#xe966;" glyph-name="unlock-alt" data-tags="unlock-alt" horiz-adv-x="575" d="M437.76 724.48c-75.52 0-138.24-61.44-138.24-138.24v-104.96h-229.12c-38.4 0-70.4-32-70.4-70.4v-168.96c0-38.4 32-70.4 70.4-70.4h288c38.4 0 70.4 32 70.4 70.4v168.96c0 38.4-32 70.4-70.4 70.4h-6.4v104.96c0 46.080 37.12 84.48 84.48 84.48 46.080 0 84.48-37.12 84.48-84.48 0-15.36 11.52-26.88 26.88-26.88s26.88 11.52 26.88 26.88c1.28 76.8-62.72 138.24-136.96 138.24zM376.32 410.88v-168.96c0-8.96-7.68-16.64-16.64-16.64h-289.28c-8.96 0-16.64 7.68-16.64 16.64v168.96c0 8.96 7.68 16.64 16.64 16.64h288c10.24 1.28 17.92-6.4 17.92-16.64z" />
<glyph unicode="&#xe967;" glyph-name="unlock" data-tags="unlock" horiz-adv-x="429" d="M358.4 481.28h-227.84v104.96c0 46.080 37.12 84.48 84.48 84.48 46.080 0 84.48-37.12 84.48-84.48 0-15.36 11.52-26.88 26.88-26.88s26.88 11.52 26.88 26.88c0 75.52-61.44 138.24-138.24 138.24s-138.24-61.44-138.24-138.24v-104.96h-6.4c-38.4 0-70.4-32-70.4-70.4v-168.96c0-38.4 32-70.4 70.4-70.4h288c38.4 0 70.4 32 70.4 70.4v168.96c1.28 39.68-30.72 70.4-70.4 70.4zM373.76 241.92c0-8.96-7.68-16.64-16.64-16.64h-286.72c-8.96 0-16.64 7.68-16.64 16.64v168.96c0 8.96 7.68 16.64 16.64 16.64h288c8.96 0 16.64-7.68 16.64-16.64l-1.28-168.96z" />
<glyph unicode="&#xe968;" glyph-name="upload" data-tags="upload" horiz-adv-x="458" d="M431.36 396.8c-15.36 0-26.88-11.52-26.88-26.88v-125.44c0-15.36-11.52-26.88-26.88-26.88h-296.96c-15.36 0-26.88 11.52-26.88 26.88v125.44c0 14.080-11.52 26.88-26.88 26.88s-26.88-12.8-26.88-26.88v-125.44c0-44.8 35.84-80.64 80.64-80.64h296.96c44.8 0 80.64 35.84 80.64 80.64v125.44c0 14.080-11.52 26.88-26.88 26.88zM248.32 723.2c-1.28 1.28-6.4 8.96-19.2 8.96s-17.92-7.68-19.2-8.96l-112.64-112.64c-10.24-10.24-10.24-26.88 0-38.4 10.24-10.24 26.88-10.24 38.4 0l66.56 67.84v-253.44c0-15.36 11.52-26.88 26.88-26.88s26.88 11.52 26.88 26.88v253.44l66.56-66.56c10.24-10.24 26.88-10.24 38.4 0 10.24 10.24 10.24 26.88 0 38.4l-112.64 111.36z" />
<glyph unicode="&#xe969;" glyph-name="user-alt" data-tags="user-alt" horiz-adv-x="526" d="M442.88 432.64c-24.32 24.32-52.48 43.52-84.48 55.040 28.16 25.6 46.080 64 46.080 104.96 0 78.080-64 143.36-143.36 143.36s-143.36-64-143.36-143.36c0-42.24 17.92-79.36 46.080-104.96-32-11.52-60.16-29.44-84.48-55.040-84.48-92.16-79.36-240.64-79.36-247.040 1.28-15.36 12.8-25.6 28.16-25.6s25.6 12.8 25.6 28.16c0 1.28-5.12 131.84 67.84 208.64 34.56 35.84 81.92 53.76 140.8 53.76s106.24-17.92 140.8-53.76c72.96-75.52 67.84-206.080 67.84-208.64-1.28-15.36 10.24-26.88 25.6-28.16h1.28c14.080 0 25.6 11.52 26.88 25.6 1.28 6.4 7.68 154.88-81.92 247.040zM174.080 592.64c0 48.64 39.68 89.6 89.6 89.6 48.64 0 89.6-39.68 89.6-89.6 0-48.64-39.68-89.6-89.6-89.6-49.92 1.28-89.6 40.96-89.6 89.6z" />
<glyph unicode="&#xe96a;" glyph-name="user" data-tags="user" horiz-adv-x="607" d="M604.16 263.68c-3.84 19.2-10.24 38.4-17.92 56.32-28.16 66.56-79.36 121.6-142.080 153.6 17.92 26.88 28.16 58.88 28.16 93.44 0 93.44-75.52 168.96-168.96 168.96s-168.96-75.52-168.96-168.96c0-34.56 10.24-66.56 28.16-93.44-83.2-42.24-142.080-119.040-161.28-208.64-5.12-25.6 1.28-51.2 16.64-71.68 16.64-20.48 40.96-32 66.56-32h436.48c25.6 0 49.92 11.52 66.56 32 16.64 19.2 23.040 44.8 16.64 70.4zM302.080 682.24c64 0 115.2-52.48 115.2-115.2s-52.48-115.2-115.2-115.2c-64 0-115.2 52.48-115.2 115.2s52.48 115.2 115.2 115.2zM545.28 225.28c-6.4-7.68-15.36-11.52-24.32-11.52h-436.48c-10.24 0-19.2 3.84-24.32 11.52-6.4 7.68-8.96 17.92-6.4 26.88 16.64 78.080 70.4 144.64 143.36 179.2 1.28 0 1.28 1.28 2.56 1.28 28.16-21.76 64-35.84 102.4-35.84s74.24 12.8 103.68 35.84c1.28 0 1.28-1.28 2.56-1.28 57.6-26.88 103.68-72.96 128-131.84 6.4-15.36 11.52-30.72 15.36-47.36 2.56-7.68 0-19.2-6.4-26.88z" />
<glyph unicode="&#xe96b;" glyph-name="users-alt" data-tags="users-alt" horiz-adv-x="740" d="M359.68 487.68c28.16 25.6 46.080 64 46.080 104.96 0 79.36-64 143.36-143.36 143.36s-143.36-64-143.36-143.36c0-42.24 17.92-79.36 46.080-104.96-32-11.52-60.16-29.44-84.48-55.040-85.76-92.16-80.64-240.64-80.64-247.040 1.28-15.36 12.8-26.88 28.16-25.6s25.6 12.8 25.6 28.16c0 1.28-5.12 131.84 67.84 208.64 34.56 35.84 81.92 55.040 142.080 55.040 58.88 0 106.24-17.92 140.8-53.76 72.96-75.52 67.84-207.36 67.84-208.64-1.28-15.36 10.24-26.88 25.6-28.16 0 0 1.28 0 1.28 0 14.080 0 25.6 11.52 26.88 25.6 0 6.4 6.4 154.88-83.2 247.040-23.040 24.32-51.2 42.24-83.2 53.76zM174.080 592.64c0 48.64 39.68 89.6 89.6 89.6s89.6-39.68 89.6-89.6c0-48.64-39.68-89.6-89.6-89.6s-89.6 40.96-89.6 89.6zM684.8 532.48c-12.8 14.080-28.16 24.32-44.8 32 14.080 17.92 23.040 39.68 23.040 64 0 56.32-44.8 101.12-101.12 101.12s-101.12-44.8-101.12-101.12c0-24.32 8.96-46.080 23.040-64-12.8-6.4-25.6-14.080-35.84-24.32-11.52-10.24-11.52-26.88-2.56-38.4 10.24-11.52 26.88-11.52 38.4-2.56 20.48 17.92 46.080 26.88 78.080 26.88 35.84 0 62.72-10.24 83.2-32 43.52-46.080 40.96-125.44 40.96-126.72-1.28-15.36 10.24-26.88 25.6-28.16 0 0 1.28 0 1.28 0 14.080 0 25.6 11.52 26.88 25.6 1.28 5.12 3.84 104.96-55.040 167.68zM514.56 627.2c0 25.6 21.76 47.36 47.36 47.36s47.36-21.76 47.36-47.36-21.76-47.36-47.36-47.36c-25.6 0-47.36 21.76-47.36 47.36z" />
<glyph unicode="&#xe96c;" glyph-name="users" data-tags="users" horiz-adv-x="637" d="M544 582.4c-8.96 44.8-44.8 80.64-90.88 90.88-11.52 53.76-58.88 93.44-115.2 93.44h-220.16c-65.28 0-117.76-52.48-117.76-117.76v-220.16c0-56.32 39.68-103.68 93.44-115.2 8.96-44.8 44.8-80.64 90.88-90.88 11.52-53.76 58.88-93.44 115.2-93.44h220.16c65.28 0 117.76 52.48 117.76 117.76v220.16c0 56.32-39.68 103.68-93.44 115.2zM583.68 467.2v-220.16c0-2.56 0-5.12 0-7.68-15.36 35.84-42.24 66.56-76.8 87.040 7.68 15.36 11.52 32 11.52 49.92 0 60.16-48.64 108.8-108.8 108.8s-108.8-48.64-108.8-108.8c0-17.92 3.84-34.56 11.52-49.92-34.56-20.48-60.16-51.2-76.8-87.040 0 2.56 0 5.12 0 7.68v220.16c0 35.84 28.16 64 64 64h220.16c35.84 0 64-28.16 64-64zM353.28 375.040c0 30.72 24.32 55.040 55.040 55.040s55.040-24.32 55.040-55.040c0-30.72-24.32-55.040-55.040-55.040-29.44 0-55.040 24.32-55.040 55.040zM53.76 428.8v220.16c0 35.84 28.16 64 64 64h220.16c25.6 0 47.36-15.36 57.6-37.12h-186.88c-65.28 0-117.76-52.48-117.76-117.76v-188.16c-21.76 10.24-37.12 33.28-37.12 58.88zM144.64 337.92v220.16c0 35.84 28.16 64 64 64h220.16c25.6 0 47.36-15.36 57.6-37.12h-186.88c-65.28 0-117.76-52.48-117.76-117.76v-188.16c-21.76 10.24-37.12 33.28-37.12 58.88zM299.52 183.040c-8.96 0-16.64 1.28-24.32 5.12 0 1.28 1.28 2.56 1.28 3.84 8.96 39.68 35.84 74.24 72.96 93.44 17.92-11.52 38.4-17.92 60.16-17.92s43.52 6.4 60.16 17.92c37.12-19.2 64-52.48 72.96-93.44 0-1.28 1.28-2.56 1.28-3.84-7.68-2.56-15.36-5.12-24.32-5.12h-220.16z" />
<glyph unicode="&#xe96d;" glyph-name="warning" data-tags="warning" horiz-adv-x="673" d="M325.12 130.56c-83.2 0-279.040 7.68-316.16 71.68-40.96 72.96 65.28 263.68 98.56 321.28 33.28 56.32 148.48 241.92 227.84 241.92 89.6 0 231.68-239.36 273.92-323.84 61.44-122.88 79.36-204.8 49.92-243.2-48.64-65.28-286.72-67.84-334.080-67.84zM335.36 712.96c-23.040 0-98.56-75.52-180.48-216.32-88.32-149.76-111.36-247.040-98.56-268.8 10.24-17.92 102.4-44.8 268.8-44.8 174.080 0 276.48 28.16 290.56 47.36 8.96 11.52 1.28 72.96-55.040 186.88-84.48 168.96-195.84 295.68-225.28 295.68zM336.64 345.6c-15.36 0-26.88 11.52-26.88 26.88v203.52c0 15.36 11.52 26.88 26.88 26.88s26.88-11.52 26.88-26.88v-202.24c0-15.36-12.8-28.16-26.88-28.16zM363.52 276.48c0-14.845-12.035-26.88-26.88-26.88s-26.88 12.035-26.88 26.88c0 14.845 12.035 26.88 26.88 26.88s26.88-12.035 26.88-26.88z" />
</font>
</defs>
</svg>
